<svg width="500" height="500" viewBox="0 0 500 500" fill="none" xmlns="http://www.w3.org/2000/svg">
<rect width="500" height="500" fill="none"/>
<path d="M154.216 417.825C133.019 430.637 110.386 436.496 90.9423 435.634C71.4946 434.771 55.2993 427.193 46.842 413.201C38.3848 399.209 39.2037 381.347 47.4799 363.727C55.7543 346.111 71.4625 328.795 92.6592 315.983C113.856 303.171 136.489 297.312 155.933 298.175C175.38 299.038 191.576 306.616 200.033 320.608C208.49 334.6 207.671 352.461 199.395 370.081C191.121 387.697 175.412 405.013 154.216 417.825Z" fill="#34A531" stroke="#472618"/>
<path d="M303.585 307.598C283.889 322.614 262.016 330.871 242.593 332.104C223.165 333.336 206.249 327.543 196.337 314.541C186.425 301.539 185.319 283.693 191.653 265.286C197.986 246.882 211.742 227.978 231.439 212.962C251.136 197.946 273.008 189.688 292.432 188.456C311.86 187.223 328.776 193.017 338.688 206.019C348.6 219.02 349.706 236.867 343.371 255.274C337.038 273.678 323.282 292.582 303.585 307.598Z" fill="#34A531" stroke="#472618"/>
<path d="M436.054 170.784C419.52 189.225 399.582 201.434 380.733 206.284C361.88 211.135 344.178 208.613 332.006 197.699C319.833 186.784 315.403 169.461 318.177 150.193C320.95 130.929 330.92 109.782 347.455 91.3418C363.99 72.9013 383.927 60.692 402.776 55.8423C421.629 50.9915 439.331 53.5128 451.503 64.4273C463.676 75.3419 468.106 92.665 465.332 111.933C462.56 131.197 452.589 152.344 436.054 170.784Z" fill="#34A531" stroke="#472618"/>
<ellipse cx="124.597" cy="384.63" rx="65" ry="35" transform="rotate(-26.0079 124.597 384.63)" fill="#9ADE99"/>
<ellipse cx="271.597" cy="274.63" rx="65" ry="35" transform="rotate(-32.7993 271.597 274.63)" fill="#9ADE99"/>
<ellipse cx="397.984" cy="147.113" rx="65" ry="35" transform="rotate(-41.1194 397.984 147.113)" fill="#9ADE99"/>
<circle cx="101.5" cy="394.5" r="9.5" fill="white"/>
<circle cx="259.5" cy="284.5" r="9.5" fill="white"/>
<circle cx="362.5" cy="175.5" r="9.5" fill="white"/>
</svg>
