<svg width="500" height="500" viewBox="0 0 500 500" fill="none" xmlns="http://www.w3.org/2000/svg">
<g clip-path="url(#clip0_105_104)">
<rect width="500" height="500" fill="none"/>
<path d="M332.172 193.546C319.3 232.699 298.939 265.204 276.497 286.123C254.01 307.084 229.733 316.174 208.85 309.309C187.968 302.444 173.82 280.722 168.157 250.507C162.506 220.352 165.403 182.106 178.274 142.953C191.146 103.8 211.507 71.2955 233.949 50.3764C256.435 29.4154 280.713 20.3248 301.595 27.1898C322.478 34.0548 336.626 55.7775 342.289 85.9925C347.94 116.147 345.043 154.393 332.172 193.546Z" fill="#673723" stroke="#897643" stroke-width="3"/>
<line x1="302.583" y1="25.9635" x2="208.901" y2="310.933" stroke="#897643" stroke-width="5"/>
<path d="M459.781 332.83C454.285 370.169 440.236 402.563 422.042 424.761C403.827 446.985 381.656 458.784 359.843 455.573C338.03 452.363 320.198 434.677 309.158 408.146C298.132 381.648 294.012 346.579 299.508 309.24C305.003 271.902 319.053 239.507 337.246 217.309C355.462 195.085 377.633 183.287 399.446 186.497C421.259 189.708 439.091 207.394 450.13 233.924C461.157 260.422 465.277 295.491 459.781 332.83Z" fill="#673723" stroke="#897643" stroke-width="3"/>
<line x1="400.21" y1="185.119" x2="360.17" y2="457.163" stroke="#897643" stroke-width="5"/>
<path d="M197.355 323.911C216.326 352.443 225.828 383.293 225.918 410.061C226.009 436.844 216.697 459.346 198.28 471.592C179.862 483.838 155.51 483.72 130.848 473.276C106.198 462.837 81.4256 442.141 62.4545 413.609C43.4834 385.078 33.9818 354.228 33.8914 327.46C33.8009 300.677 43.1126 278.175 61.53 265.929C79.9474 253.683 104.3 253.801 128.962 264.245C153.611 274.684 178.384 295.38 197.355 323.911Z" fill="#673723" stroke="#897643" stroke-width="3"/>
<line x1="61.1748" y1="264.391" x2="199.585" y2="472.552" stroke="#897643" stroke-width="5"/>
</g>
<defs>
<clipPath id="clip0_105_104">
<rect width="500" height="500" fill="white"/>
</clipPath>
</defs>
</svg>
