<svg width="500" height="500" viewBox="0 0 500 500" fill="none" xmlns="http://www.w3.org/2000/svg">
<rect width="500" height="500" fill="none"/>
<path d="M142.57 315.582C158.599 308.456 175.113 306.663 188.823 309.455C202.538 312.247 213.32 319.585 218.23 330.63C223.14 341.675 221.364 354.596 214.249 366.649C207.136 378.698 194.741 389.756 178.712 396.882C162.683 404.008 146.169 405.801 132.458 403.009C118.744 400.217 107.961 392.879 103.051 381.834C98.1413 370.789 99.9173 357.868 107.032 345.815C114.145 333.766 126.54 322.708 142.57 315.582Z" fill="#BBA97C" stroke="#897643" stroke-width="3"/>
<path d="M147.069 267.822C164.609 270.385 179.727 277.769 189.995 287.612C200.263 297.455 205.651 309.723 203.845 322.086C202.039 334.45 193.366 344.663 180.711 351.157C168.057 357.651 151.458 360.402 133.918 357.839C116.379 355.277 101.261 347.892 90.9932 338.05C80.7248 328.206 75.3363 315.939 77.1426 303.575C78.9488 291.212 87.6216 280.999 100.277 274.504C112.931 268.011 129.53 265.26 147.069 267.822Z" fill="#34A531" stroke="#897643"/>
<path d="M197.785 275.738C211.855 286.214 221.515 299.727 225.804 313.046C230.095 326.368 228.986 339.363 221.767 349.058C214.549 358.753 202.417 363.54 188.424 363.249C174.435 362.958 158.719 357.577 144.649 347.101C130.579 336.625 120.919 323.111 116.63 309.793C112.339 296.471 113.448 283.475 120.667 273.781C127.885 264.086 140.017 259.298 154.01 259.589C167.999 259.881 183.715 265.261 197.785 275.738Z" fill="#BBA97C" stroke="#897643" stroke-width="3"/>
<path d="M324.085 325.762C318.668 342.446 308.96 355.925 297.718 364.255C286.472 372.586 273.806 375.699 262.31 371.966C250.814 368.233 242.392 358.273 238.186 344.925C233.981 331.579 234.045 314.968 239.462 298.284C244.88 281.6 254.587 268.12 265.83 259.791C277.075 251.459 289.741 248.347 301.238 252.08C312.734 255.813 321.155 265.772 325.361 279.121C329.566 292.466 329.503 309.077 324.085 325.762Z" fill="#BBA97C" stroke="#897643" stroke-width="3"/>
<path d="M356.593 361.038C342.961 372.369 327.362 378.674 313.178 379.729C298.993 380.784 286.268 376.59 278.281 366.981C270.295 357.371 268.498 344.094 272.129 330.341C275.76 316.589 284.812 302.406 298.444 291.076C312.076 279.746 327.675 273.44 341.859 272.385C356.044 271.33 368.769 275.525 376.756 285.134C384.743 294.743 386.539 308.021 382.908 321.774C379.277 335.525 370.225 349.708 356.593 361.038Z" fill="#34A531" stroke="#897643"/>
<path d="M316.8 393.461C299.603 396.92 283.095 395.069 270.323 389.355C257.548 383.639 248.625 374.126 246.241 362.276C243.858 350.426 248.409 338.203 257.981 327.992C267.55 317.784 282.058 309.695 299.256 306.236C316.453 302.776 332.961 304.627 345.733 310.342C358.508 316.058 367.431 325.571 369.814 337.421C372.198 349.27 367.647 361.493 358.075 371.704C348.506 381.912 333.998 390.002 316.8 393.461Z" fill="#BBA97C" stroke="#897643" stroke-width="3"/>
<path d="M247.824 174.922C246.152 192.384 239.597 207.647 230.427 218.215C221.254 228.786 209.564 234.57 197.532 233.418C185.5 232.265 175.12 224.368 168.121 212.248C161.123 200.131 157.585 183.902 159.257 166.44C160.929 148.978 167.484 133.715 176.654 123.146C185.827 112.575 197.517 106.792 209.549 107.944C221.581 109.097 231.961 116.994 238.961 129.114C245.958 141.23 249.497 157.46 247.824 174.922Z" fill="#BBA97C" stroke="#897643" stroke-width="3"/>
<path d="M287.205 202.314C276.353 216.33 262.492 225.866 248.874 229.971C235.255 234.075 221.923 232.739 212.043 225.089C202.164 217.439 197.532 204.867 198.096 190.654C198.66 176.442 204.423 160.634 215.275 146.619C226.127 132.603 239.988 123.067 253.606 118.962C267.226 114.858 280.557 116.194 290.437 123.844C300.316 131.493 304.948 144.066 304.384 158.279C303.82 172.491 298.058 188.299 287.205 202.314Z" fill="#34A531" stroke="#897643"/>
<path d="M255.386 242.591C239.347 249.695 222.831 251.466 209.124 248.656C195.413 245.845 184.641 238.492 179.745 227.441C174.85 216.389 176.644 203.471 183.775 191.428C190.904 179.388 203.314 168.346 219.353 161.242C235.391 154.138 251.908 152.367 265.615 155.177C279.325 157.988 290.098 165.341 294.993 176.392C299.888 187.444 298.095 200.362 290.964 212.405C283.835 224.445 271.425 235.487 255.386 242.591Z" fill="#BBA97C" stroke="#897643" stroke-width="3"/>
</svg>
