<svg width="500" height="500" viewBox="0 0 500 500" fill="none" xmlns="http://www.w3.org/2000/svg">
<rect width="500" height="500" fill="none"/>
<path d="M355.605 144.451C365.896 160.746 372.038 177.473 373.666 191.332C375.299 205.23 372.381 216.056 364.816 220.834C357.251 225.613 346.221 223.595 334.373 216.148C322.559 208.723 310.093 195.989 299.802 179.695C289.511 163.4 283.369 146.673 281.741 132.814C280.108 118.916 283.026 108.09 290.591 103.312C298.156 98.5334 309.186 100.551 321.034 107.997C332.848 115.423 345.313 128.157 355.605 144.451Z" fill="#34A531" stroke="#472618"/>
<path d="M399.519 179.494C392.46 197.426 382.598 212.269 372.383 221.774C362.138 231.307 351.681 235.353 343.355 232.075C335.029 228.798 330.136 218.709 329.139 204.75C328.144 190.832 331.047 173.251 338.106 155.318C345.166 137.385 355.027 122.543 365.243 113.038C375.487 103.505 385.945 99.4587 394.271 102.736C402.597 106.014 407.489 116.103 408.487 130.061C409.481 143.979 406.578 161.561 399.519 179.494Z" fill="#34A531" stroke="#472618"/>
<circle cx="156" cy="170" r="123.5" fill="#673723" stroke="#472618" stroke-width="3"/>
<line x1="36.7627" y1="133.708" x2="245.146" y2="256.754" stroke="#472618" stroke-width="3"/>
<circle cx="129.5" cy="89.5" r="4.5" fill="#472618"/>
<circle cx="153.5" cy="124.5" r="10.5" fill="#472618"/>
<circle cx="176" cy="95" r="6" fill="#472618"/>
<circle cx="337" cy="303" r="123.5" fill="#673723" stroke="#472618" stroke-width="3"/>
<path d="M424.5 245.5C424.5 260.682 414.758 274.647 398.545 284.891C382.352 295.122 359.89 301.5 335 301.5C310.11 301.5 287.648 295.122 271.455 284.891C255.242 274.647 245.5 260.682 245.5 245.5C245.5 230.318 255.242 216.353 271.455 206.109C287.648 195.878 310.11 189.5 335 189.5C359.89 189.5 382.352 195.878 398.545 206.109C414.758 216.353 424.5 230.318 424.5 245.5Z" fill="white" stroke="#472618" stroke-width="3"/>
<ellipse cx="321.824" cy="217.616" rx="63.5" ry="20.5" transform="rotate(-8.45703 321.824 217.616)" fill="#E7E3E3"/>
</svg>
