<svg width="500" height="500" viewBox="0 0 500 500" fill="none" xmlns="http://www.w3.org/2000/svg">
<rect width="500" height="500" fill="none"/>
<path d="M166.658 279.659C185.775 299.273 198.259 321.629 203.042 341.86C207.833 362.125 204.856 379.976 193.516 391.028C182.177 402.08 164.255 404.599 144.12 399.29C124.018 393.99 101.989 380.936 82.8722 361.322C63.7551 341.709 51.2708 319.352 46.4879 299.121C41.6969 278.856 44.6745 261.005 56.014 249.953C67.3535 238.901 85.2748 236.382 105.41 241.691C125.512 246.991 147.541 260.045 166.658 279.659Z" fill="#BBA97C" stroke="#897643" stroke-width="3"/>
<line x1="55.7573" y1="248.134" x2="195.353" y2="391.357" stroke="#897643" stroke-width="5"/>
<path d="M301.5 334C301.5 361.389 294.836 386.113 284.14 403.939C273.426 421.795 258.835 432.5 243 432.5C227.165 432.5 212.573 421.795 201.86 403.939C191.164 386.113 184.5 361.389 184.5 334C184.5 306.611 191.164 281.887 201.86 264.061C212.573 246.205 227.165 235.5 243 235.5C258.835 235.5 273.426 246.205 284.14 264.061C294.836 281.887 301.5 306.611 301.5 334Z" fill="#BBA97C" stroke="#897643" stroke-width="3"/>
<line x1="243.5" y1="234" x2="243.5" y2="434" stroke="#897643" stroke-width="5"/>
<path d="M177.055 175.814C159.419 196.769 138.4 211.394 118.738 218.145C99.0432 224.908 80.986 223.702 68.8711 213.505C56.7562 203.309 52.4854 185.723 55.7865 165.162C59.0822 144.636 69.9038 121.43 87.5404 100.475C105.177 79.5195 126.196 64.895 145.858 58.1437C165.553 51.381 183.61 52.5869 195.725 62.7833C207.84 72.9796 212.11 90.5659 208.809 111.126C205.514 131.652 194.692 154.859 177.055 175.814Z" fill="#BBA97C" stroke="#897643" stroke-width="3"/>
<line x1="195.698" y1="60.6098" x2="66.9127" y2="213.627" stroke="#897643" stroke-width="5"/>
<path d="M288.307 183.454C265.689 168.008 249.03 148.562 240.341 129.676C231.637 110.759 231.026 92.6717 239.956 79.5953C248.886 66.5189 265.955 60.5058 286.743 61.7283C307.496 62.9488 331.671 71.3884 354.289 86.8345C376.907 102.281 393.566 121.727 402.255 140.612C410.959 159.53 411.57 177.617 402.64 190.693C393.71 203.77 376.641 209.783 355.853 208.56C335.1 207.34 310.925 198.9 288.307 183.454Z" fill="#BBA97C" stroke="#897643" stroke-width="3"/>
<line x1="405.469" y1="189.604" x2="240.307" y2="76.8138" stroke="#897643" stroke-width="5"/>
<path d="M316.641 281.115C312.347 254.065 315.053 228.602 322.822 209.319C330.603 190.004 343.336 177.144 358.975 174.662C374.614 172.179 390.704 180.464 404.084 196.42C417.443 212.349 427.9 235.722 432.194 262.772C436.488 289.823 433.783 315.285 426.014 334.568C418.232 353.883 405.499 366.743 389.86 369.226C374.222 371.708 358.132 363.423 344.751 347.467C331.393 331.539 320.935 308.165 316.641 281.115Z" fill="#BBA97C" stroke="#897643" stroke-width="3"/>
<line x1="389.627" y1="371.099" x2="358.271" y2="173.572" stroke="#897643" stroke-width="5"/>
</svg>
