<svg width="500" height="500" viewBox="0 0 500 500" fill="none" xmlns="http://www.w3.org/2000/svg">
<g clip-path="url(#clip0_105_114)">
<rect width="500" height="500" fill="none"/>
<path d="M300.593 408.821C242.022 429.277 183.119 430.906 135.243 417.029C87.3659 403.151 50.5572 373.782 36.0565 332.263C21.5558 290.744 32.077 244.845 60.9041 204.178C89.7305 163.511 136.84 128.116 195.411 107.66C253.982 87.2036 312.885 85.5739 360.761 99.4515C408.638 113.33 445.447 142.698 459.947 184.217C474.448 225.736 463.927 271.635 435.1 312.303C406.273 352.969 359.164 388.364 300.593 408.821Z" fill="#34A531" stroke="#472618"/>
<path d="M193.798 252.937C205.907 277.754 195.604 307.689 170.786 319.798C145.968 331.907 116.033 321.604 103.925 296.786C91.816 271.968 102.119 242.033 126.937 229.925C151.755 217.816 181.689 228.119 193.798 252.937Z" fill="#BBA97C"/>
<circle cx="106.861" cy="345.861" r="50" transform="rotate(-26.0079 106.861 345.861)" fill="#BBA97C"/>
<circle cx="281.861" cy="204.861" r="50" transform="rotate(-26.0079 281.861 204.861)" fill="#BBA97C"/>
<circle cx="352.861" cy="199.861" r="50" transform="rotate(-26.0079 352.861 199.861)" fill="#BBA97C"/>
<ellipse cx="412" cy="207.081" rx="38.8639" ry="41.2129" transform="rotate(-26.0079 412 207.081)" fill="#BBA97C"/>
<circle cx="201.861" cy="219.861" r="50" transform="rotate(-26.0079 201.861 219.861)" fill="#BBA97C"/>
<ellipse cx="281.038" cy="314.604" rx="83.0792" ry="177.436" transform="rotate(64.6699 281.038 314.604)" fill="#34A531"/>
<circle cx="127" cy="269" r="15" fill="#472618"/>
<path d="M105 346C105 354.284 98.2843 361 90 361C81.7157 361 75 354.284 75 346C75 337.716 81.7157 331 90 331C98.2843 331 105 337.716 105 346Z" fill="#472618"/>
<circle cx="189" cy="201" r="15" fill="#472618"/>
<circle cx="290" cy="182" r="15" fill="#472618"/>
<circle cx="364" cy="176" r="15" fill="#472618"/>
<circle cx="427" cy="197" r="15" fill="#472618"/>
<circle cx="84.5" cy="344.5" r="7.5" fill="white"/>
<circle cx="120.5" cy="267.5" r="7.5" fill="white"/>
<circle cx="187.5" cy="195.5" r="7.5" fill="white"/>
<circle cx="289.5" cy="175.5" r="7.5" fill="white"/>
<circle cx="362.5" cy="170.5" r="7.5" fill="white"/>
<circle cx="427.5" cy="193.5" r="7.5" fill="white"/>
</g>
<defs>
<clipPath id="clip0_105_114">
<rect width="500" height="500" fill="white"/>
</clipPath>
</defs>
</svg>
