<svg width="1585" height="122" viewBox="0 0 1585 122" fill="none" xmlns="http://www.w3.org/2000/svg">
<path d="M48.28 36.096H56.472L24.088 121.6H15.384L24.856 97.152L0.28 36.096H9.368L29.208 85.76L48.28 36.096ZM101.556 98.048C95.8387 98.048 90.7187 96.6827 86.196 93.952C81.6733 91.2213 78.132 87.424 75.572 82.56C73.012 77.6107 71.732 72.064 71.732 65.92C71.732 59.776 72.9693 54.3147 75.444 49.536C78.004 44.672 81.5027 40.8747 85.94 38.144C90.4627 35.4133 95.5827 34.048 101.3 34.048C107.017 34.048 112.137 35.4133 116.66 38.144C121.183 40.8747 124.724 44.672 127.284 49.536C129.844 54.4 131.124 59.904 131.124 66.048C131.124 72.192 129.844 77.696 127.284 82.56C124.809 87.424 121.311 91.2213 116.788 93.952C112.351 96.6827 107.273 98.048 101.556 98.048ZM101.3 90.112C105.396 90.112 109.023 89.088 112.18 87.04C115.423 84.992 117.94 82.1333 119.732 78.464C121.524 74.7947 122.42 70.656 122.42 66.048C122.42 61.44 121.524 57.3013 119.732 53.632C117.94 49.9627 115.423 47.104 112.18 45.056C109.023 43.008 105.396 41.984 101.3 41.984C97.2893 41.984 93.7053 43.008 90.548 45.056C87.3907 47.104 84.916 49.9627 83.124 53.632C81.332 57.216 80.436 61.312 80.436 65.92C80.436 70.6133 81.332 74.7947 83.124 78.464C84.916 82.1333 87.3907 84.992 90.548 87.04C93.7053 89.088 97.2893 90.112 101.3 90.112ZM206.932 36.096V96H198.228V86.016C196.18 89.856 193.449 92.8427 190.036 94.976C186.708 97.024 182.825 98.048 178.388 98.048C174.207 98.048 170.324 97.1947 166.74 95.488C163.241 93.7813 160.425 91.264 158.292 87.936C156.244 84.608 155.22 80.6827 155.22 76.16V36.096H163.924V72.32C163.924 84.1813 169.215 90.112 179.796 90.112C185.94 90.112 190.548 87.936 193.62 83.584C196.692 79.232 198.228 73.3867 198.228 66.048V36.096H206.932ZM263.394 34.048C265.442 34.048 267.405 34.3467 269.282 34.944V42.88C267.49 42.0267 265.527 41.6 263.394 41.6C259.725 41.6 256.311 42.624 253.154 44.672C249.997 46.72 247.437 49.7067 245.474 53.632C243.597 57.472 242.658 62.0373 242.658 67.328V96H233.954V36.096H242.658V48.128C244.962 43.6907 247.863 40.2347 251.362 37.76C254.946 35.2853 258.957 34.048 263.394 34.048ZM349.733 8.83199C346.746 8.83199 344.272 9.856 342.309 11.904C340.432 13.952 339.493 16.5973 339.493 19.84V36.096H353.317V44.032H339.493V96H330.789V44.032H323.109V36.096H330.789V19.84C330.789 14.2933 332.538 9.77066 336.037 6.272C339.621 2.688 344.186 0.895996 349.733 0.895996H353.317V8.83199H349.733ZM403.159 34.048C405.207 34.048 407.17 34.3467 409.047 34.944V42.88C407.255 42.0267 405.292 41.6 403.159 41.6C399.49 41.6 396.076 42.624 392.919 44.672C389.762 46.72 387.202 49.7067 385.239 53.632C383.362 57.472 382.423 62.0373 382.423 67.328V96H373.719V36.096H382.423V48.128C384.727 43.6907 387.628 40.2347 391.127 37.76C394.711 35.2853 398.722 34.048 403.159 34.048ZM432.71 96V36.096H441.414V96H432.71ZM437.062 24.448C435.099 24.448 433.435 23.7653 432.07 22.4C430.79 21.0347 430.15 19.3707 430.15 17.408C430.15 15.5307 430.79 13.952 432.07 12.672C433.435 11.3067 435.099 10.624 437.062 10.624C438.939 10.624 440.561 11.3067 441.926 12.672C443.291 13.952 443.974 15.5733 443.974 17.536C443.974 19.4133 443.291 21.0347 441.926 22.4C440.561 23.7653 438.939 24.448 437.062 24.448ZM498.96 34.048C504.336 34.048 509.2 35.3707 513.552 38.016C517.904 40.6613 521.317 44.288 523.792 48.896C526.267 53.4187 527.504 58.496 527.504 64.128C527.504 65.7493 527.461 66.9867 527.376 67.84H478.096C478.437 73.984 480.443 79.232 484.112 83.584C487.781 87.936 492.773 90.112 499.088 90.112C504.208 90.112 508.432 89.1733 511.76 87.296C515.173 85.3333 517.904 82.6453 519.952 79.232L526.864 83.84C524.048 88.2773 520.336 91.776 515.728 94.336C511.12 96.8107 505.659 98.048 499.344 98.048C493.541 98.048 488.379 96.6827 483.856 93.952C479.333 91.2213 475.792 87.424 473.232 82.56C470.672 77.696 469.392 72.192 469.392 66.048C469.392 59.904 470.629 54.4 473.104 49.536C475.664 44.672 479.163 40.8747 483.6 38.144C488.123 35.4133 493.243 34.048 498.96 34.048ZM518.8 60.672C517.947 54.4427 515.856 49.792 512.528 46.72C509.2 43.5627 504.677 41.984 498.96 41.984C493.413 41.984 488.848 43.776 485.264 47.36C481.765 50.8587 479.547 55.296 478.608 60.672H518.8ZM579.778 34.048C583.959 34.048 587.799 34.9013 591.298 36.608C594.882 38.3147 597.698 40.832 599.746 44.16C601.879 47.488 602.946 51.4133 602.946 55.936V96H594.242V59.776C594.242 47.9147 588.951 41.984 578.37 41.984C572.226 41.984 567.618 44.16 564.546 48.512C561.474 52.864 559.938 58.7093 559.938 66.048V96H551.234V36.096H559.938V46.08C561.986 42.24 564.674 39.296 568.002 37.248C571.415 35.1147 575.341 34.048 579.778 34.048ZM686.544 3.072V96H677.84V87.168C675.365 90.5813 672.336 93.2693 668.752 95.232C665.168 97.1093 661.243 98.048 656.976 98.048C651.259 98.048 646.139 96.6827 641.616 93.952C637.093 91.2213 633.552 87.424 630.992 82.56C628.432 77.696 627.152 72.1493 627.152 65.92C627.152 59.776 628.389 54.3147 630.864 49.536C633.424 44.672 636.923 40.8747 641.36 38.144C645.883 35.4133 651.003 34.048 656.72 34.048C661.072 34.048 665.04 35.0293 668.624 36.992C672.293 38.8693 675.365 41.5573 677.84 45.056V3.072H686.544ZM656.72 90.112C660.816 90.112 664.443 89.088 667.6 87.04C670.843 84.992 673.36 82.1333 675.152 78.464C676.944 74.7947 677.84 70.656 677.84 66.048C677.84 61.44 676.944 57.3013 675.152 53.632C673.36 49.9627 670.843 47.104 667.6 45.056C664.443 43.008 660.816 41.984 656.72 41.984C652.709 41.984 649.125 43.008 645.968 45.056C642.811 47.104 640.336 49.9627 638.544 53.632C636.752 57.216 635.856 61.312 635.856 65.92C635.856 70.6133 636.752 74.7947 638.544 78.464C640.336 82.1333 642.811 84.992 645.968 87.04C649.125 89.088 652.709 90.112 656.72 90.112ZM757.61 96V36.096H766.314V96H757.61ZM761.962 24.448C759.999 24.448 758.335 23.7653 756.97 22.4C755.69 21.0347 755.05 19.3707 755.05 17.408C755.05 15.5307 755.69 13.952 756.97 12.672C758.335 11.3067 759.999 10.624 761.962 10.624C763.839 10.624 765.461 11.3067 766.826 12.672C768.191 13.952 768.874 15.5733 768.874 17.536C768.874 19.4133 768.191 21.0347 766.826 22.4C765.461 23.7653 763.839 24.448 761.962 24.448ZM826.548 34.048C830.729 34.048 834.569 34.9013 838.068 36.608C841.652 38.3147 844.468 40.832 846.516 44.16C848.649 47.488 849.716 51.4133 849.716 55.936V96H841.012V59.776C841.012 47.9147 835.721 41.984 825.14 41.984C818.996 41.984 814.388 44.16 811.316 48.512C808.244 52.864 806.708 58.7093 806.708 66.048V96H798.004V36.096H806.708V46.08C808.756 42.24 811.444 39.296 814.772 37.248C818.185 35.1147 822.111 34.048 826.548 34.048ZM946.454 34.048C948.502 34.048 950.465 34.3467 952.342 34.944V42.88C950.55 42.0267 948.587 41.6 946.454 41.6C942.785 41.6 939.371 42.624 936.214 44.672C933.057 46.72 930.497 49.7067 928.534 53.632C926.657 57.472 925.718 62.0373 925.718 67.328V96H917.014V36.096H925.718V48.128C928.022 43.6907 930.923 40.2347 934.422 37.76C938.006 35.2853 942.017 34.048 946.454 34.048ZM995.875 34.048C1001.25 34.048 1006.12 35.3707 1010.47 38.016C1014.82 40.6613 1018.23 44.288 1020.71 48.896C1023.18 53.4187 1024.42 58.496 1024.42 64.128C1024.42 65.7493 1024.38 66.9867 1024.29 67.84H975.011C975.352 73.984 977.358 79.232 981.027 83.584C984.696 87.936 989.688 90.112 996.003 90.112C1001.12 90.112 1005.35 89.1733 1008.68 87.296C1012.09 85.3333 1014.82 82.6453 1016.87 79.232L1023.78 83.84C1020.96 88.2773 1017.25 91.776 1012.64 94.336C1008.04 96.8107 1002.57 98.048 996.259 98.048C990.456 98.048 985.294 96.6827 980.771 93.952C976.248 91.2213 972.707 87.424 970.147 82.56C967.587 77.696 966.307 72.192 966.307 66.048C966.307 59.904 967.544 54.4 970.019 49.536C972.579 44.672 976.078 40.8747 980.515 38.144C985.038 35.4133 990.158 34.048 995.875 34.048ZM1015.72 60.672C1014.86 54.4427 1012.77 49.792 1009.44 46.72C1006.12 43.5627 1001.59 41.984 995.875 41.984C990.328 41.984 985.763 43.776 982.179 47.36C978.68 50.8587 976.462 55.296 975.523 60.672H1015.72ZM1103.83 36.096V96H1095.12V87.168C1092.65 90.5813 1089.62 93.2693 1086.04 95.232C1082.45 97.1093 1078.53 98.048 1074.26 98.048C1068.54 98.048 1063.42 96.6827 1058.9 93.952C1054.38 91.2213 1050.84 87.424 1048.28 82.56C1045.72 77.696 1044.44 72.1493 1044.44 65.92C1044.44 59.776 1045.67 54.3147 1048.15 49.536C1050.71 44.672 1054.21 40.8747 1058.64 38.144C1063.17 35.4133 1068.29 34.048 1074 34.048C1078.36 34.048 1082.32 35.0293 1085.91 36.992C1089.58 38.8693 1092.65 41.5573 1095.12 45.056V36.096H1103.83ZM1074 90.112C1078.1 90.112 1081.73 89.088 1084.88 87.04C1088.13 84.992 1090.64 82.1333 1092.44 78.464C1094.23 74.7947 1095.12 70.656 1095.12 66.048C1095.12 61.44 1094.23 57.3013 1092.44 53.632C1090.64 49.9627 1088.13 47.104 1084.88 45.056C1081.73 43.008 1078.1 41.984 1074 41.984C1069.99 41.984 1066.41 43.008 1063.25 45.056C1060.1 47.104 1057.62 49.9627 1055.83 53.632C1054.04 57.216 1053.14 61.312 1053.14 65.92C1053.14 70.6133 1054.04 74.7947 1055.83 78.464C1057.62 82.1333 1060.1 84.992 1063.25 87.04C1066.41 89.088 1069.99 90.112 1074 90.112ZM1131.42 96V3.072H1140.12V96H1131.42ZM1232.89 34.048C1238.27 34.048 1243.13 35.3707 1247.49 38.016C1251.84 40.6613 1255.25 44.288 1257.73 48.896C1260.2 53.4187 1261.44 58.496 1261.44 64.128C1261.44 65.7493 1261.4 66.9867 1261.31 67.84H1212.03C1212.37 73.984 1214.38 79.232 1218.05 83.584C1221.72 87.936 1226.71 90.112 1233.02 90.112C1238.14 90.112 1242.37 89.1733 1245.69 87.296C1249.11 85.3333 1251.84 82.6453 1253.89 79.232L1260.8 83.84C1257.98 88.2773 1254.27 91.776 1249.66 94.336C1245.05 96.8107 1239.59 98.048 1233.28 98.048C1227.48 98.048 1222.31 96.6827 1217.79 93.952C1213.27 91.2213 1209.73 87.424 1207.17 82.56C1204.61 77.696 1203.33 72.192 1203.33 66.048C1203.33 59.904 1204.56 54.4 1207.04 49.536C1209.6 44.672 1213.1 40.8747 1217.53 38.144C1222.06 35.4133 1227.18 34.048 1232.89 34.048ZM1252.73 60.672C1251.88 54.4427 1249.79 49.792 1246.46 46.72C1243.13 43.5627 1238.61 41.984 1232.89 41.984C1227.35 41.984 1222.78 43.776 1219.2 47.36C1215.7 50.8587 1213.48 55.296 1212.54 60.672H1252.73ZM1306.29 98.048C1300.49 98.048 1295.37 96.8107 1290.93 94.336C1286.58 91.8613 1283.25 88.3627 1280.94 83.84L1288.75 80C1291.91 86.7413 1298.1 90.112 1307.31 90.112C1311.75 90.112 1315.42 89.3013 1318.32 87.68C1321.22 86.0587 1322.67 83.5413 1322.67 80.128C1322.67 76.6293 1321.48 74.0267 1319.09 72.32C1316.78 70.6133 1312.69 69.504 1306.8 68.992C1298.61 68.3093 1292.72 66.4747 1289.14 63.488C1285.64 60.5013 1283.89 56.5333 1283.89 51.584C1283.89 46.0373 1285.89 41.728 1289.9 38.656C1293.92 35.584 1299.42 34.048 1306.42 34.048C1318.28 34.048 1326.34 38.7413 1330.61 48.128L1322.8 51.968C1321.35 48.5547 1319.22 46.0373 1316.4 44.416C1313.67 42.7947 1310.13 41.984 1305.78 41.984C1301.34 41.984 1297.93 42.7947 1295.54 44.416C1293.23 46.0373 1292.08 48.3413 1292.08 51.328C1292.08 54.144 1293.32 56.448 1295.79 58.24C1298.35 59.9467 1302.7 61.056 1308.85 61.568C1316.44 62.2507 1322.08 64.128 1325.74 67.2C1329.5 70.1867 1331.38 74.1547 1331.38 79.104C1331.38 83.1147 1330.22 86.5707 1327.92 89.472C1325.62 92.288 1322.54 94.4213 1318.7 95.872C1314.86 97.3227 1310.73 98.048 1306.29 98.048ZM1358.62 96V44.032H1348.38V36.096H1358.62V16.256H1367.33V36.096H1381.15V44.032H1367.33V96H1358.62ZM1457.23 36.096V96H1448.53V87.168C1446.06 90.5813 1443.03 93.2693 1439.44 95.232C1435.86 97.1093 1431.93 98.048 1427.67 98.048C1421.95 98.048 1416.83 96.6827 1412.31 93.952C1407.78 91.2213 1404.24 87.424 1401.68 82.56C1399.12 77.696 1397.84 72.1493 1397.84 65.92C1397.84 59.776 1399.08 54.3147 1401.55 49.536C1404.11 44.672 1407.61 40.8747 1412.05 38.144C1416.57 35.4133 1421.69 34.048 1427.41 34.048C1431.76 34.048 1435.73 35.0293 1439.31 36.992C1442.98 38.8693 1446.06 41.5573 1448.53 45.056V36.096H1457.23ZM1427.41 90.112C1431.51 90.112 1435.13 89.088 1438.29 87.04C1441.53 84.992 1444.05 82.1333 1445.84 78.464C1447.63 74.7947 1448.53 70.656 1448.53 66.048C1448.53 61.44 1447.63 57.3013 1445.84 53.632C1444.05 49.9627 1441.53 47.104 1438.29 45.056C1435.13 43.008 1431.51 41.984 1427.41 41.984C1423.4 41.984 1419.82 43.008 1416.66 45.056C1413.5 47.104 1411.03 49.9627 1409.23 53.632C1407.44 57.216 1406.55 61.312 1406.55 65.92C1406.55 70.6133 1407.44 74.7947 1409.23 78.464C1411.03 82.1333 1413.5 84.992 1416.66 87.04C1419.82 89.088 1423.4 90.112 1427.41 90.112ZM1487.38 96V44.032H1477.14V36.096H1487.38V16.256H1496.09V36.096H1509.91V44.032H1496.09V96H1487.38ZM1556.17 34.048C1561.55 34.048 1566.41 35.3707 1570.76 38.016C1575.11 40.6613 1578.53 44.288 1581 48.896C1583.48 53.4187 1584.71 58.496 1584.71 64.128C1584.71 65.7493 1584.67 66.9867 1584.59 67.84H1535.31C1535.65 73.984 1537.65 79.232 1541.32 83.584C1544.99 87.936 1549.98 90.112 1556.3 90.112C1561.42 90.112 1565.64 89.1733 1568.97 87.296C1572.38 85.3333 1575.11 82.6453 1577.16 79.232L1584.07 83.84C1581.26 88.2773 1577.55 91.776 1572.94 94.336C1568.33 96.8107 1562.87 98.048 1556.55 98.048C1550.75 98.048 1545.59 96.6827 1541.07 93.952C1536.54 91.2213 1533 87.424 1530.44 82.56C1527.88 77.696 1526.6 72.192 1526.6 66.048C1526.6 59.904 1527.84 54.4 1530.31 49.536C1532.87 44.672 1536.37 40.8747 1540.81 38.144C1545.33 35.4133 1550.45 34.048 1556.17 34.048ZM1576.01 60.672C1575.16 54.4427 1573.07 49.792 1569.74 46.72C1566.41 43.5627 1561.89 41.984 1556.17 41.984C1550.62 41.984 1546.06 43.776 1542.47 47.36C1538.98 50.8587 1536.76 55.296 1535.82 60.672H1576.01Z" fill="black"/>
</svg>
