<svg viewBox="0 0 1920 110" fill="none" xmlns="http://www.w3.org/2000/svg">
<path d="M0.9375 91.75C1.1875 90.875 1.41667 89.7917 1.625 88.5C1.875 87.2083 2.08333 85.6042 2.25 83.6875C2.41667 81.7708 2.54167 79.5 2.625 76.875C2.70833 74.2083 2.75 71.1042 2.75 67.5625V26.875C2.75 23.3333 2.70833 20.25 2.625 17.625C2.54167 14.9583 2.41667 12.6667 2.25 10.75C2.08333 8.79167 1.875 7.16667 1.625 5.875C1.41667 4.58333 1.1875 3.5 0.9375 2.625V2.375H15.9375V2.625C15.6875 3.5 15.4375 4.58333 15.1875 5.875C14.9792 7.16667 14.7917 8.79167 14.625 10.75C14.5 12.6667 14.375 14.9583 14.25 17.625C14.1667 20.25 14.125 23.3333 14.125 26.875V40.8125L50.625 11C54.7083 7.66667 56.75 4.79167 56.75 2.375H74.3125V2.625C71.8542 3.20833 69.3542 4.33333 66.8125 6C64.3125 7.625 61.6458 9.625 58.8125 12L26.5625 39L65.375 81.625C67 83.2917 68.375 84.6875 69.5 85.8125C70.6667 86.8958 71.6875 87.8125 72.5625 88.5625C73.4375 89.2708 74.2292 89.875 74.9375 90.375C75.6875 90.8333 76.4583 91.2917 77.25 91.75V92H58.9375C58.7708 91.625 58.4792 91.1458 58.0625 90.5625C57.6875 89.9792 57.2292 89.375 56.6875 88.75C56.1875 88.125 55.625 87.4792 55 86.8125C54.4167 86.1458 53.8542 85.5208 53.3125 84.9375L14.125 41.9375V67.5625C14.125 71.1042 14.1667 74.2083 14.25 76.875C14.375 79.5 14.5 81.7708 14.625 83.6875C14.7917 85.6042 14.9792 87.2083 15.1875 88.5C15.4375 89.7917 15.6875 90.875 15.9375 91.75V92H0.9375V91.75ZM94.5675 2.375C99.7758 2.375 104.942 2.35417 110.067 2.3125C115.234 2.27083 119.963 2.22917 124.255 2.1875C128.547 2.10417 132.213 2 135.255 1.875C138.297 1.75 140.359 1.58333 141.442 1.375L138.38 9.6875C137.005 9.3125 135.401 8.97917 133.567 8.6875C131.984 8.4375 130.047 8.20833 127.755 8C125.505 7.75 122.901 7.625 119.942 7.625C118.942 7.625 117.734 7.66667 116.317 7.75C114.942 7.79167 113.609 7.85417 112.317 7.9375C110.817 8.02083 109.297 8.10417 107.755 8.1875V42.3125C112.047 42.2708 115.922 42.1458 119.38 41.9375C122.838 41.7292 125.776 41.5208 128.192 41.3125C131.026 41.0625 133.526 40.7708 135.692 40.4375L133.755 49.5C130.88 49.125 127.942 48.7708 124.942 48.4375C122.359 48.1458 119.547 47.8958 116.505 47.6875C113.463 47.4375 110.547 47.3125 107.755 47.3125V86.5C112.672 86.5 117.192 86.2917 121.317 85.875C125.442 85.4583 129.047 84.9792 132.13 84.4375C135.713 83.8542 138.984 83.1667 141.942 82.375L140.13 92.5C139.63 92.4583 138.88 92.4167 137.88 92.375C136.88 92.3333 135.755 92.2917 134.505 92.25C133.297 92.2083 132.005 92.1667 130.63 92.125C129.297 92.125 128.026 92.1042 126.817 92.0625C125.609 92.0625 124.526 92.0417 123.567 92C122.651 92 121.984 92 121.567 92H94.5675V91.75C94.8175 90.875 95.0467 89.7917 95.255 88.5C95.505 87.2083 95.7133 85.6042 95.88 83.6875C96.0467 81.7708 96.1717 79.5 96.255 76.875C96.3383 74.2083 96.38 71.1042 96.38 67.5625V26.875C96.38 23.3333 96.3383 20.25 96.255 17.625C96.1717 14.9583 96.0467 12.6667 95.88 10.75C95.7133 8.79167 95.505 7.16667 95.255 5.875C95.0467 4.58333 94.8175 3.5 94.5675 2.625V2.375ZM168.197 2.375C173.406 2.375 178.572 2.35417 183.697 2.3125C188.864 2.27083 193.593 2.22917 197.885 2.1875C202.177 2.10417 205.843 2 208.885 1.875C211.927 1.75 213.989 1.58333 215.072 1.375L212.01 9.6875C210.635 9.3125 209.031 8.97917 207.197 8.6875C205.614 8.4375 203.677 8.20833 201.385 8C199.135 7.75 196.531 7.625 193.572 7.625C192.572 7.625 191.364 7.66667 189.947 7.75C188.572 7.79167 187.239 7.85417 185.947 7.9375C184.447 8.02083 182.927 8.10417 181.385 8.1875V42.3125C185.677 42.2708 189.552 42.1458 193.01 41.9375C196.468 41.7292 199.406 41.5208 201.822 41.3125C204.656 41.0625 207.156 40.7708 209.322 40.4375L207.385 49.5C204.51 49.125 201.572 48.7708 198.572 48.4375C195.989 48.1458 193.177 47.8958 190.135 47.6875C187.093 47.4375 184.177 47.3125 181.385 47.3125V86.5C186.302 86.5 190.822 86.2917 194.947 85.875C199.072 85.4583 202.677 84.9792 205.76 84.4375C209.343 83.8542 212.614 83.1667 215.572 82.375L213.76 92.5C213.26 92.4583 212.51 92.4167 211.51 92.375C210.51 92.3333 209.385 92.2917 208.135 92.25C206.927 92.2083 205.635 92.1667 204.26 92.125C202.927 92.125 201.656 92.1042 200.447 92.0625C199.239 92.0625 198.156 92.0417 197.197 92C196.281 92 195.614 92 195.197 92H168.197V91.75C168.447 90.875 168.677 89.7917 168.885 88.5C169.135 87.2083 169.343 85.6042 169.51 83.6875C169.677 81.7708 169.802 79.5 169.885 76.875C169.968 74.2083 170.01 71.1042 170.01 67.5625V26.875C170.01 23.3333 169.968 20.25 169.885 17.625C169.802 14.9583 169.677 12.6667 169.51 10.75C169.343 8.79167 169.135 7.16667 168.885 5.875C168.677 4.58333 168.447 3.5 168.197 2.625V2.375ZM245.327 2.375L309.702 70.875V26.875C309.702 23.3333 309.661 20.25 309.577 17.625C309.494 14.9583 309.369 12.6667 309.202 10.75C309.036 8.79167 308.827 7.16667 308.577 5.875C308.369 4.58333 308.14 3.5 307.89 2.625V2.375H319.015V2.625C318.765 3.5 318.536 4.58333 318.327 5.875C318.119 7.16667 317.932 8.79167 317.765 10.75C317.598 12.6667 317.473 14.9583 317.39 17.625C317.307 20.25 317.265 23.3333 317.265 26.875V93.25H315.077L250.702 24.8125V67.5625C250.702 71.1042 250.744 74.2083 250.827 76.875C250.911 79.5 251.036 81.7708 251.202 83.6875C251.369 85.6042 251.557 87.2083 251.765 88.5C251.973 89.7917 252.202 90.875 252.452 91.75V92H241.327V91.75C241.577 90.875 241.807 89.7917 242.015 88.5C242.265 87.2083 242.473 85.6042 242.64 83.6875C242.807 81.7708 242.932 79.5 243.015 76.875C243.098 74.2083 243.14 71.1042 243.14 67.5625V26.875C243.14 23.3333 243.098 20.25 243.015 17.625C242.932 14.9583 242.807 12.6667 242.64 10.75C242.473 8.79167 242.265 7.16667 242.015 5.875C241.807 4.58333 241.577 3.5 241.327 2.625V2.375H245.327ZM347.332 2.375C352.541 2.375 357.707 2.35417 362.832 2.3125C367.999 2.27083 372.728 2.22917 377.02 2.1875C381.312 2.10417 384.978 2 388.02 1.875C391.062 1.75 393.124 1.58333 394.207 1.375L391.145 9.6875C389.77 9.3125 388.166 8.97917 386.332 8.6875C384.749 8.4375 382.812 8.20833 380.52 8C378.27 7.75 375.666 7.625 372.707 7.625C371.707 7.625 370.499 7.66667 369.082 7.75C367.707 7.79167 366.374 7.85417 365.082 7.9375C363.582 8.02083 362.062 8.10417 360.52 8.1875V42.3125C364.812 42.2708 368.687 42.1458 372.145 41.9375C375.603 41.7292 378.541 41.5208 380.957 41.3125C383.791 41.0625 386.291 40.7708 388.457 40.4375L386.52 49.5C383.645 49.125 380.707 48.7708 377.707 48.4375C375.124 48.1458 372.312 47.8958 369.27 47.6875C366.228 47.4375 363.312 47.3125 360.52 47.3125V86.5C365.437 86.5 369.957 86.2917 374.082 85.875C378.207 85.4583 381.812 84.9792 384.895 84.4375C388.478 83.8542 391.749 83.1667 394.707 82.375L392.895 92.5C392.395 92.4583 391.645 92.4167 390.645 92.375C389.645 92.3333 388.52 92.2917 387.27 92.25C386.062 92.2083 384.77 92.1667 383.395 92.125C382.062 92.125 380.791 92.1042 379.582 92.0625C378.374 92.0625 377.291 92.0417 376.332 92C375.416 92 374.749 92 374.332 92H347.332V91.75C347.582 90.875 347.812 89.7917 348.02 88.5C348.27 87.2083 348.478 85.6042 348.645 83.6875C348.812 81.7708 348.937 79.5 349.02 76.875C349.103 74.2083 349.145 71.1042 349.145 67.5625V26.875C349.145 23.3333 349.103 20.25 349.02 17.625C348.937 14.9583 348.812 12.6667 348.645 10.75C348.478 8.79167 348.27 7.16667 348.02 5.875C347.812 4.58333 347.582 3.5 347.332 2.625V2.375ZM483.405 67.5625C483.405 71.1042 483.447 74.2083 483.53 76.875C483.655 79.5 483.78 81.7708 483.905 83.6875C484.072 85.6042 484.259 87.2083 484.467 88.5C484.717 89.7917 484.967 90.875 485.217 91.75V92H470.217V91.75C470.467 90.875 470.697 89.7917 470.905 88.5C471.155 87.2083 471.363 85.6042 471.53 83.6875C471.697 81.7708 471.822 79.5 471.905 76.875C471.988 74.2083 472.03 71.1042 472.03 67.5625V26.875C472.03 23.3333 471.988 20.25 471.905 17.625C471.822 14.9583 471.697 12.6667 471.53 10.75C471.363 8.79167 471.155 7.16667 470.905 5.875C470.697 4.58333 470.467 3.5 470.217 2.625V2.375C473.676 2.375 477.176 2.375 480.717 2.375C484.259 2.33333 487.697 2.3125 491.03 2.3125C494.363 2.27083 497.53 2.22917 500.53 2.1875C503.53 2.10417 506.238 2.04167 508.655 2C511.072 1.91667 513.113 1.83333 514.78 1.75C516.447 1.625 517.634 1.5 518.342 1.375L515.28 9.6875C513.905 9.3125 512.301 8.97917 510.467 8.6875C508.884 8.4375 506.947 8.20833 504.655 8C502.405 7.75 499.801 7.625 496.842 7.625C495.842 7.625 494.592 7.66667 493.092 7.75C491.592 7.79167 490.113 7.85417 488.655 7.9375C486.988 8.02083 485.238 8.10417 483.405 8.1875V39.75C487.697 39.7083 491.634 39.5833 495.217 39.375C498.801 39.1667 501.884 38.9583 504.467 38.75C507.467 38.5 510.176 38.2083 512.592 37.875L510.717 46.9375C507.592 46.5625 504.426 46.2083 501.217 45.875C498.467 45.5833 495.509 45.3333 492.342 45.125C489.176 44.875 486.197 44.75 483.405 44.75V67.5625ZM593.722 92V91.75C593.806 91.5417 593.868 91.2292 593.91 90.8125C593.952 90.3958 593.972 90.0208 593.972 89.6875C593.972 88.3958 593.785 86.9792 593.41 85.4375C593.077 83.8542 592.41 81.8958 591.41 79.5625L583.847 62.5625C581.514 62.4792 578.41 62.4375 574.535 62.4375C570.66 62.4375 566.472 62.4375 561.972 62.4375C558.681 62.4375 555.493 62.4375 552.41 62.4375C549.368 62.4375 546.618 62.4792 544.16 62.5625L536.972 79.0625C536.347 80.6042 535.681 82.2917 534.972 84.125C534.264 85.9583 533.91 87.8125 533.91 89.6875C533.91 90.2292 533.952 90.6875 534.035 91.0625C534.118 91.3958 534.202 91.625 534.285 91.75V92H521.535V91.75C522.285 90.9583 523.222 89.5625 524.347 87.5625C525.472 85.5208 526.702 82.9792 528.035 79.9375L563.847 0.5H568.847L602.785 76.875C603.577 78.6667 604.389 80.4167 605.222 82.125C606.097 83.7917 606.91 85.2917 607.66 86.625C608.41 87.9583 609.077 89.0833 609.66 90C610.243 90.9167 610.639 91.5 610.847 91.75V92H593.722ZM553.222 57.0625C555.639 57.0625 558.118 57.0625 560.66 57.0625C563.202 57.0208 565.681 57 568.097 57C570.556 56.9583 572.91 56.9375 575.16 56.9375C577.41 56.8958 579.452 56.8542 581.285 56.8125L563.722 17.125L546.472 57.0625H553.222ZM632.977 2.375L697.352 70.875V26.875C697.352 23.3333 697.311 20.25 697.227 17.625C697.144 14.9583 697.019 12.6667 696.852 10.75C696.686 8.79167 696.477 7.16667 696.227 5.875C696.019 4.58333 695.79 3.5 695.54 2.625V2.375H706.665V2.625C706.415 3.5 706.186 4.58333 705.977 5.875C705.769 7.16667 705.582 8.79167 705.415 10.75C705.248 12.6667 705.123 14.9583 705.04 17.625C704.957 20.25 704.915 23.3333 704.915 26.875V93.25H702.727L638.352 24.8125V67.5625C638.352 71.1042 638.394 74.2083 638.477 76.875C638.561 79.5 638.686 81.7708 638.852 83.6875C639.019 85.6042 639.207 87.2083 639.415 88.5C639.623 89.7917 639.852 90.875 640.102 91.75V92H628.977V91.75C629.227 90.875 629.457 89.7917 629.665 88.5C629.915 87.2083 630.123 85.6042 630.29 83.6875C630.457 81.7708 630.582 79.5 630.665 76.875C630.748 74.2083 630.79 71.1042 630.79 67.5625V26.875C630.79 23.3333 630.748 20.25 630.665 17.625C630.582 14.9583 630.457 12.6667 630.29 10.75C630.123 8.79167 629.915 7.16667 629.665 5.875C629.457 4.58333 629.227 3.5 628.977 2.625V2.375H632.977ZM738.482 2.375L802.857 70.875V26.875C802.857 23.3333 802.816 20.25 802.732 17.625C802.649 14.9583 802.524 12.6667 802.357 10.75C802.191 8.79167 801.982 7.16667 801.732 5.875C801.524 4.58333 801.295 3.5 801.045 2.625V2.375H812.17V2.625C811.92 3.5 811.691 4.58333 811.482 5.875C811.274 7.16667 811.087 8.79167 810.92 10.75C810.753 12.6667 810.628 14.9583 810.545 17.625C810.462 20.25 810.42 23.3333 810.42 26.875V93.25H808.232L743.857 24.8125V67.5625C743.857 71.1042 743.899 74.2083 743.982 76.875C744.066 79.5 744.191 81.7708 744.357 83.6875C744.524 85.6042 744.712 87.2083 744.92 88.5C745.128 89.7917 745.357 90.875 745.607 91.75V92H734.482V91.75C734.732 90.875 734.962 89.7917 735.17 88.5C735.42 87.2083 735.628 85.6042 735.795 83.6875C735.962 81.7708 736.087 79.5 736.17 76.875C736.253 74.2083 736.295 71.1042 736.295 67.5625V26.875C736.295 23.3333 736.253 20.25 736.17 17.625C736.087 14.9583 735.962 12.6667 735.795 10.75C735.628 8.79167 735.42 7.16667 735.17 5.875C734.962 4.58333 734.732 3.5 734.482 2.625V2.375H738.482ZM881.362 0.875C888.321 0.875 894.737 2.02083 900.612 4.3125C906.529 6.5625 911.633 9.75 915.925 13.875C920.217 17.9583 923.571 22.875 925.987 28.625C928.404 34.375 929.612 40.7292 929.612 47.6875C929.612 51.6458 929.154 55.5417 928.237 59.375C927.321 63.2083 925.967 66.8333 924.175 70.25C922.425 73.6667 920.258 76.8333 917.675 79.75C915.092 82.625 912.133 85.125 908.8 87.25C905.508 89.3333 901.862 90.9583 897.862 92.125C893.862 93.3333 889.55 93.9375 884.925 93.9375C877.967 93.9375 871.529 92.8333 865.612 90.625C859.737 88.375 854.654 85.2083 850.362 81.125C846.071 77.0417 842.717 72.1458 840.3 66.4375C837.883 60.6875 836.675 54.3125 836.675 47.3125C836.675 43.3542 837.133 39.4583 838.05 35.625C838.967 31.7917 840.3 28.1458 842.05 24.6875C843.842 21.2292 846.008 18.0625 848.55 15.1875C851.133 12.2708 854.071 9.75 857.362 7.625C860.696 5.5 864.362 3.85417 868.362 2.6875C872.404 1.47917 876.737 0.875 881.362 0.875ZM884.925 88.3125C889.55 88.3125 893.779 87.4792 897.612 85.8125C901.446 84.1458 904.737 81.7292 907.487 78.5625C910.279 75.3958 912.446 71.5417 913.987 67C915.529 62.4167 916.3 57.2292 916.3 51.4375C916.3 45.0208 915.55 39.0833 914.05 33.625C912.592 28.125 910.404 23.375 907.487 19.375C904.571 15.3333 900.925 12.1875 896.55 9.9375C892.217 7.64583 887.154 6.5 881.362 6.5C876.737 6.5 872.508 7.33333 868.675 9C864.842 10.625 861.529 13 858.737 16.125C855.987 19.25 853.842 23.0833 852.3 27.625C850.758 32.1667 849.987 37.3333 849.987 43.125C849.987 49.5 850.717 55.4583 852.175 61C853.633 66.5 855.821 71.2708 858.737 75.3125C861.654 79.3542 865.3 82.5417 869.675 84.875C874.05 87.1667 879.133 88.3125 884.925 88.3125ZM967.805 67.5625C967.805 71.1042 967.847 74.2083 967.93 76.875C968.055 79.5 968.18 81.7708 968.305 83.6875C968.472 85.6042 968.659 87.2083 968.867 88.5C969.117 89.7917 969.367 90.875 969.617 91.75V92H954.617V91.75C954.867 90.875 955.097 89.7917 955.305 88.5C955.555 87.2083 955.742 85.6042 955.867 83.6875C956.034 81.7708 956.159 79.5 956.242 76.875C956.367 74.25 956.43 71.1458 956.43 67.5625V26.875C956.43 23.3333 956.367 20.25 956.242 17.625C956.159 14.9583 956.034 12.6667 955.867 10.75C955.742 8.83333 955.555 7.22917 955.305 5.9375C955.097 4.60417 954.867 3.5 954.617 2.625V2.375L957.242 2.625C958.034 2.70833 958.909 2.77083 959.867 2.8125C960.867 2.8125 961.888 2.8125 962.93 2.8125C964.555 2.8125 966.742 2.625 969.492 2.25C972.284 1.83333 975.826 1.625 980.117 1.625C984.117 1.625 987.805 2.16667 991.18 3.25C994.597 4.33333 997.555 5.91667 1000.05 8C1002.55 10.0833 1004.49 12.6458 1005.87 15.6875C1007.28 18.6875 1007.99 22.1042 1007.99 25.9375C1007.99 28.9375 1007.6 31.7292 1006.8 34.3125C1006.05 36.8542 1004.97 39.1667 1003.55 41.25C1002.18 43.3333 1000.51 45.1875 998.555 46.8125C996.597 48.3958 994.409 49.7292 991.992 50.8125L1013.93 81.625C1015.01 83.1667 1016.01 84.5 1016.93 85.625C1017.89 86.75 1018.78 87.7292 1019.62 88.5625C1020.49 89.3542 1021.33 90.0208 1022.12 90.5625C1022.91 91.0625 1023.72 91.4583 1024.55 91.75V92H1006.49C1006.37 91.2083 1005.95 90.1667 1005.24 88.875C1004.58 87.5417 1003.78 86.2292 1002.87 84.9375L980.742 53.75C979.784 53.8333 978.826 53.9167 977.867 54C976.909 54.0417 975.93 54.0625 974.93 54.0625C973.763 54.0625 972.576 54.0208 971.367 53.9375C970.201 53.8542 969.013 53.7083 967.805 53.5V67.5625ZM967.805 48.625C968.93 48.875 970.076 49.0625 971.242 49.1875C972.409 49.2708 973.534 49.3125 974.617 49.3125C977.742 49.3125 980.597 48.8542 983.18 47.9375C985.763 46.9792 987.951 45.5417 989.742 43.625C991.576 41.7083 992.992 39.3333 993.992 36.5C994.992 33.625 995.492 30.2708 995.492 26.4375C995.492 23.3125 995.138 20.4792 994.43 17.9375C993.722 15.3958 992.659 13.25 991.242 11.5C989.867 9.70833 988.117 8.33333 985.992 7.375C983.867 6.375 981.388 5.875 978.555 5.875C975.68 5.875 973.388 6.02083 971.68 6.3125C969.972 6.60417 968.68 6.91667 967.805 7.25V48.625ZM1103.56 67.5625C1103.56 71.1042 1103.61 74.2083 1103.69 76.875C1103.81 79.5 1103.94 81.7708 1104.06 83.6875C1104.23 85.6042 1104.42 87.2083 1104.63 88.5C1104.88 89.7917 1105.13 90.875 1105.38 91.75V92H1090.38V91.75C1090.63 90.875 1090.86 89.7917 1091.06 88.5C1091.31 87.2083 1091.5 85.6042 1091.63 83.6875C1091.79 81.7708 1091.92 79.5 1092 76.875C1092.13 74.25 1092.19 71.1458 1092.19 67.5625V26.875C1092.19 23.3333 1092.13 20.25 1092 17.625C1091.92 14.9583 1091.79 12.6667 1091.63 10.75C1091.5 8.83333 1091.31 7.22917 1091.06 5.9375C1090.86 4.60417 1090.63 3.5 1090.38 2.625V2.375L1093 2.625C1093.79 2.70833 1094.67 2.77083 1095.63 2.8125C1096.63 2.8125 1097.65 2.8125 1098.69 2.8125C1100.31 2.8125 1102.5 2.625 1105.25 2.25C1108.04 1.83333 1111.59 1.625 1115.88 1.625C1119.88 1.625 1123.56 2.16667 1126.94 3.25C1130.36 4.33333 1133.31 5.91667 1135.81 8C1138.31 10.0833 1140.25 12.6458 1141.63 15.6875C1143.04 18.6875 1143.75 22.1042 1143.75 25.9375C1143.75 28.9375 1143.36 31.7292 1142.56 34.3125C1141.81 36.8542 1140.73 39.1667 1139.31 41.25C1137.94 43.3333 1136.27 45.1875 1134.31 46.8125C1132.36 48.3958 1130.17 49.7292 1127.75 50.8125L1149.69 81.625C1150.77 83.1667 1151.77 84.5 1152.69 85.625C1153.65 86.75 1154.54 87.7292 1155.38 88.5625C1156.25 89.3542 1157.09 90.0208 1157.88 90.5625C1158.67 91.0625 1159.48 91.4583 1160.31 91.75V92H1142.25C1142.13 91.2083 1141.71 90.1667 1141 88.875C1140.34 87.5417 1139.54 86.2292 1138.63 84.9375L1116.5 53.75C1115.54 53.8333 1114.59 53.9167 1113.63 54C1112.67 54.0417 1111.69 54.0625 1110.69 54.0625C1109.52 54.0625 1108.34 54.0208 1107.13 53.9375C1105.96 53.8542 1104.77 53.7083 1103.56 53.5V67.5625ZM1103.56 48.625C1104.69 48.875 1105.84 49.0625 1107 49.1875C1108.17 49.2708 1109.29 49.3125 1110.38 49.3125C1113.5 49.3125 1116.36 48.8542 1118.94 47.9375C1121.52 46.9792 1123.71 45.5417 1125.5 43.625C1127.34 41.7083 1128.75 39.3333 1129.75 36.5C1130.75 33.625 1131.25 30.2708 1131.25 26.4375C1131.25 23.3125 1130.9 20.4792 1130.19 17.9375C1129.48 15.3958 1128.42 13.25 1127 11.5C1125.63 9.70833 1123.88 8.33333 1121.75 7.375C1119.63 6.375 1117.15 5.875 1114.31 5.875C1111.44 5.875 1109.15 6.02083 1107.44 6.3125C1105.73 6.60417 1104.44 6.91667 1103.56 7.25V48.625ZM1176.88 2.375C1182.09 2.375 1187.26 2.35417 1192.38 2.3125C1197.55 2.27083 1202.28 2.22917 1206.57 2.1875C1210.86 2.10417 1214.53 2 1217.57 1.875C1220.61 1.75 1222.67 1.58333 1223.76 1.375L1220.69 9.6875C1219.32 9.3125 1217.72 8.97917 1215.88 8.6875C1214.3 8.4375 1212.36 8.20833 1210.07 8C1207.82 7.75 1205.22 7.625 1202.26 7.625C1201.26 7.625 1200.05 7.66667 1198.63 7.75C1197.26 7.79167 1195.92 7.85417 1194.63 7.9375C1193.13 8.02083 1191.61 8.10417 1190.07 8.1875V42.3125C1194.36 42.2708 1198.24 42.1458 1201.69 41.9375C1205.15 41.7292 1208.09 41.5208 1210.51 41.3125C1213.34 41.0625 1215.84 40.7708 1218.01 40.4375L1216.07 49.5C1213.19 49.125 1210.26 48.7708 1207.26 48.4375C1204.67 48.1458 1201.86 47.8958 1198.82 47.6875C1195.78 47.4375 1192.86 47.3125 1190.07 47.3125V86.5C1194.99 86.5 1199.51 86.2917 1203.63 85.875C1207.76 85.4583 1211.36 84.9792 1214.44 84.4375C1218.03 83.8542 1221.3 83.1667 1224.26 82.375L1222.44 92.5C1221.94 92.4583 1221.19 92.4167 1220.19 92.375C1219.19 92.3333 1218.07 92.2917 1216.82 92.25C1215.61 92.2083 1214.32 92.1667 1212.94 92.125C1211.61 92.125 1210.34 92.1042 1209.13 92.0625C1207.92 92.0625 1206.84 92.0417 1205.88 92C1204.97 92 1204.3 92 1203.88 92H1176.88V91.75C1177.13 90.875 1177.36 89.7917 1177.57 88.5C1177.82 87.2083 1178.03 85.6042 1178.19 83.6875C1178.36 81.7708 1178.49 79.5 1178.57 76.875C1178.65 74.2083 1178.69 71.1042 1178.69 67.5625V26.875C1178.69 23.3333 1178.65 20.25 1178.57 17.625C1178.49 14.9583 1178.36 12.6667 1178.19 10.75C1178.03 8.79167 1177.82 7.16667 1177.57 5.875C1177.36 4.58333 1177.13 3.5 1176.88 2.625V2.375ZM1312.51 92V91.75C1312.6 91.5417 1312.66 91.2292 1312.7 90.8125C1312.74 90.3958 1312.76 90.0208 1312.76 89.6875C1312.76 88.3958 1312.57 86.9792 1312.2 85.4375C1311.87 83.8542 1311.2 81.8958 1310.2 79.5625L1302.64 62.5625C1300.3 62.4792 1297.2 62.4375 1293.32 62.4375C1289.45 62.4375 1285.26 62.4375 1280.76 62.4375C1277.47 62.4375 1274.28 62.4375 1271.2 62.4375C1268.16 62.4375 1265.41 62.4792 1262.95 62.5625L1255.76 79.0625C1255.14 80.6042 1254.47 82.2917 1253.76 84.125C1253.05 85.9583 1252.7 87.8125 1252.7 89.6875C1252.7 90.2292 1252.74 90.6875 1252.82 91.0625C1252.91 91.3958 1252.99 91.625 1253.07 91.75V92H1240.32V91.75C1241.07 90.9583 1242.01 89.5625 1243.14 87.5625C1244.26 85.5208 1245.49 82.9792 1246.82 79.9375L1282.64 0.5H1287.64L1321.57 76.875C1322.37 78.6667 1323.18 80.4167 1324.01 82.125C1324.89 83.7917 1325.7 85.2917 1326.45 86.625C1327.2 87.9583 1327.87 89.0833 1328.45 90C1329.03 90.9167 1329.43 91.5 1329.64 91.75V92H1312.51ZM1272.01 57.0625C1274.43 57.0625 1276.91 57.0625 1279.45 57.0625C1281.99 57.0208 1284.47 57 1286.89 57C1289.35 56.9583 1291.7 56.9375 1293.95 56.9375C1296.2 56.8958 1298.24 56.8542 1300.07 56.8125L1282.51 17.125L1265.26 57.0625H1272.01ZM1361.45 86.5C1366.37 86.5 1370.89 86.2917 1375.02 85.875C1379.14 85.4583 1382.75 84.9792 1385.83 84.4375C1389.41 83.8542 1392.68 83.1667 1395.64 82.375L1393.83 92.5C1393.33 92.4583 1392.58 92.4167 1391.58 92.375C1390.58 92.3333 1389.45 92.2917 1388.2 92.25C1387 92.2083 1385.7 92.1667 1384.33 92.125C1383 92.125 1381.73 92.1042 1380.52 92.0625C1379.31 92.0625 1378.23 92.0417 1377.27 92C1376.35 92 1375.68 92 1375.27 92H1348.27V91.75C1348.52 90.875 1348.75 89.7917 1348.95 88.5C1349.2 87.2083 1349.41 85.6042 1349.58 83.6875C1349.75 81.7708 1349.87 79.5 1349.95 76.875C1350.04 74.2083 1350.08 71.1042 1350.08 67.5625V26.875C1350.08 23.3333 1350.04 20.25 1349.95 17.625C1349.87 14.9583 1349.75 12.6667 1349.58 10.75C1349.41 8.79167 1349.2 7.16667 1348.95 5.875C1348.75 4.58333 1348.52 3.5 1348.27 2.625V2.375H1363.27V2.625C1363.02 3.5 1362.77 4.58333 1362.52 5.875C1362.31 7.16667 1362.12 8.79167 1361.95 10.75C1361.83 12.6667 1361.7 14.9583 1361.58 17.625C1361.5 20.25 1361.45 23.3333 1361.45 26.875V86.5ZM1430.58 7.875C1425.67 7.875 1421.23 8.10417 1417.27 8.5625C1413.31 8.97917 1409.9 9.4375 1407.02 9.9375C1403.69 10.5625 1400.71 11.25 1398.08 12L1399.9 1.875C1400.4 1.91667 1401.15 1.95833 1402.15 2C1403.15 2.04167 1404.25 2.08333 1405.46 2.125C1406.71 2.16667 1408 2.20833 1409.33 2.25C1410.71 2.25 1412 2.27083 1413.21 2.3125C1414.42 2.3125 1415.48 2.33333 1416.4 2.375C1417.36 2.375 1418.04 2.375 1418.46 2.375H1454.15C1454.56 2.375 1455.23 2.375 1456.15 2.375C1457.11 2.33333 1458.19 2.3125 1459.4 2.3125C1460.61 2.27083 1461.88 2.25 1463.21 2.25C1464.58 2.20833 1465.88 2.16667 1467.08 2.125C1468.33 2.08333 1469.46 2.04167 1470.46 2C1471.46 1.95833 1472.21 1.91667 1472.71 1.875L1474.52 12C1471.86 11.25 1468.86 10.5625 1465.52 9.9375C1462.65 9.4375 1459.23 8.97917 1455.27 8.5625C1451.31 8.10417 1446.88 7.875 1441.96 7.875V67.5625C1441.96 71.1042 1442 74.2083 1442.08 76.875C1442.21 79.5 1442.33 81.7708 1442.46 83.6875C1442.63 85.6042 1442.81 87.2083 1443.02 88.5C1443.27 89.7917 1443.52 90.875 1443.77 91.75V92H1428.83V91.75C1429.08 90.875 1429.31 89.7917 1429.52 88.5C1429.73 87.2083 1429.92 85.6042 1430.08 83.6875C1430.25 81.7708 1430.38 79.5 1430.46 76.875C1430.54 74.2083 1430.58 71.1042 1430.58 67.5625V7.875ZM1530.9 49V67.5625C1530.9 71.1042 1530.94 74.2083 1531.03 76.875C1531.11 79.5 1531.24 81.7708 1531.4 83.6875C1531.57 85.6042 1531.76 87.2083 1531.96 88.5C1532.21 89.7917 1532.46 90.875 1532.71 91.75V92H1517.71V91.75C1517.96 90.875 1518.19 89.7917 1518.4 88.5C1518.65 87.2083 1518.84 85.6042 1518.96 83.6875C1519.13 81.7708 1519.26 79.5 1519.34 76.875C1519.46 74.2083 1519.53 71.1042 1519.53 67.5625V50.25L1491.59 12.25C1490.63 10.9583 1489.67 9.77083 1488.71 8.6875C1487.8 7.60417 1486.92 6.66667 1486.09 5.875C1485.26 5.04167 1484.51 4.35417 1483.84 3.8125C1483.17 3.27083 1482.65 2.875 1482.28 2.625V2.375H1501.21C1501.21 3.33333 1501.61 4.91667 1502.4 7.125C1503.24 9.29167 1504.71 11.8542 1506.84 14.8125L1527.34 42.875L1547.4 13.5625C1548.11 12.5208 1548.82 11.4583 1549.53 10.375C1550.24 9.29167 1550.88 8.25 1551.46 7.25C1552.05 6.25 1552.51 5.33333 1552.84 4.5C1553.21 3.66667 1553.4 2.95833 1553.4 2.375H1565.59V2.625C1564.67 3.41667 1563.44 4.60417 1561.9 6.1875C1560.36 7.72917 1558.69 9.79167 1556.9 12.375L1530.9 49ZM1571.97 86.5C1571.97 85.5833 1572.14 84.7292 1572.47 83.9375C1572.84 83.1042 1573.32 82.3958 1573.91 81.8125C1574.53 81.1875 1575.24 80.7083 1576.03 80.375C1576.87 80 1577.74 79.8125 1578.66 79.8125C1579.62 79.8125 1580.49 80.0208 1581.28 80.4375C1582.12 80.8125 1582.82 81.3542 1583.41 82.0625C1584.03 82.7292 1584.51 83.5208 1584.84 84.4375C1585.22 85.3542 1585.41 86.3333 1585.41 87.375C1585.41 89 1585.03 90.7708 1584.28 92.6875C1583.57 94.6042 1582.62 96.5625 1581.41 98.5625C1580.24 100.562 1578.91 102.521 1577.41 104.438C1575.95 106.396 1574.45 108.229 1572.91 109.938L1571.22 108.5C1573.3 106.042 1574.97 103.604 1576.22 101.188C1577.47 98.7708 1578.2 96.125 1578.41 93.25C1576.57 93.1667 1575.03 92.5 1573.78 91.25C1572.57 90 1571.97 88.4167 1571.97 86.5ZM1661.48 91.75C1661.73 90.875 1661.96 89.7917 1662.17 88.5C1662.38 87.2083 1662.56 85.6042 1662.73 83.6875C1662.9 81.7708 1663.02 79.5 1663.1 76.875C1663.19 74.2083 1663.23 71.1042 1663.23 67.5625V26.875C1663.23 23.3333 1663.19 20.25 1663.1 17.625C1663.02 14.9583 1662.9 12.6667 1662.73 10.75C1662.56 8.79167 1662.38 7.16667 1662.17 5.875C1661.96 4.58333 1661.73 3.5 1661.48 2.625V2.375H1676.42V2.625C1676.17 3.5 1675.92 4.58333 1675.67 5.875C1675.46 7.16667 1675.27 8.79167 1675.1 10.75C1674.98 12.6667 1674.85 14.9583 1674.73 17.625C1674.65 20.25 1674.6 23.3333 1674.6 26.875V67.5625C1674.6 71.1042 1674.65 74.2083 1674.73 76.875C1674.85 79.5 1674.98 81.7708 1675.1 83.6875C1675.27 85.6042 1675.46 87.2083 1675.67 88.5C1675.92 89.7917 1676.17 90.875 1676.42 91.75V92H1661.48V91.75ZM1709.3 2.375L1773.67 70.875V26.875C1773.67 23.3333 1773.63 20.25 1773.55 17.625C1773.46 14.9583 1773.34 12.6667 1773.17 10.75C1773.01 8.79167 1772.8 7.16667 1772.55 5.875C1772.34 4.58333 1772.11 3.5 1771.86 2.625V2.375H1782.98V2.625C1782.73 3.5 1782.51 4.58333 1782.3 5.875C1782.09 7.16667 1781.9 8.79167 1781.73 10.75C1781.57 12.6667 1781.44 14.9583 1781.36 17.625C1781.28 20.25 1781.23 23.3333 1781.23 26.875V93.25H1779.05L1714.67 24.8125V67.5625C1714.67 71.1042 1714.71 74.2083 1714.8 76.875C1714.88 79.5 1715.01 81.7708 1715.17 83.6875C1715.34 85.6042 1715.53 87.2083 1715.73 88.5C1715.94 89.7917 1716.17 90.875 1716.42 91.75V92H1705.3V91.75C1705.55 90.875 1705.78 89.7917 1705.98 88.5C1706.23 87.2083 1706.44 85.6042 1706.61 83.6875C1706.78 81.7708 1706.9 79.5 1706.98 76.875C1707.07 74.2083 1707.11 71.1042 1707.11 67.5625V26.875C1707.11 23.3333 1707.07 20.25 1706.98 17.625C1706.9 14.9583 1706.78 12.6667 1706.61 10.75C1706.44 8.79167 1706.23 7.16667 1705.98 5.875C1705.78 4.58333 1705.55 3.5 1705.3 2.625V2.375H1709.3ZM1883.8 16.125L1883.24 16.375C1879.99 13.375 1876.07 10.9792 1871.49 9.1875C1866.95 7.39583 1861.95 6.5 1856.49 6.5C1851.24 6.5 1846.43 7.33333 1842.05 9C1837.68 10.625 1833.91 13 1830.74 16.125C1827.61 19.25 1825.18 23.0833 1823.43 27.625C1821.68 32.1667 1820.8 37.3333 1820.8 43.125C1820.8 49.5 1821.64 55.4583 1823.3 61C1824.97 66.5 1827.45 71.2708 1830.74 75.3125C1834.03 79.3542 1838.14 82.5417 1843.05 84.875C1848.01 87.1667 1853.78 88.3125 1860.36 88.3125C1862.74 88.3125 1865.11 88.0625 1867.49 87.5625C1869.86 87.0625 1872.14 86.3333 1874.3 85.375C1876.51 84.375 1878.57 83.1875 1880.49 81.8125C1882.45 80.3958 1884.22 78.7917 1885.8 77L1886.49 77.4375L1881.49 90.1875C1878.36 91.3958 1874.91 92.3125 1871.11 92.9375C1867.36 93.6042 1863.57 93.9375 1859.74 93.9375C1852.03 93.9375 1844.97 92.8333 1838.55 90.625C1832.18 88.375 1826.68 85.2083 1822.05 81.125C1817.47 77.0417 1813.89 72.1458 1811.3 66.4375C1808.76 60.6875 1807.49 54.3125 1807.49 47.3125C1807.49 43.3542 1807.99 39.4583 1808.99 35.625C1810.03 31.7917 1811.53 28.1458 1813.49 24.6875C1815.45 21.2292 1817.86 18.0625 1820.74 15.1875C1823.61 12.2708 1826.89 9.75 1830.55 7.625C1834.26 5.5 1838.32 3.85417 1842.74 2.6875C1847.2 1.47917 1852.01 0.875 1857.18 0.875C1865.22 0.875 1872.68 2.10417 1879.55 4.5625L1883.8 16.125ZM1906.24 86.5C1906.24 85.5833 1906.41 84.7292 1906.74 83.9375C1907.12 83.1042 1907.6 82.3958 1908.18 81.8125C1908.81 81.1875 1909.52 80.7083 1910.31 80.375C1911.14 80 1912.02 79.8125 1912.93 79.8125C1913.89 79.8125 1914.77 80 1915.56 80.375C1916.39 80.7083 1917.1 81.1875 1917.68 81.8125C1918.31 82.3958 1918.79 83.1042 1919.12 83.9375C1919.49 84.7292 1919.68 85.5833 1919.68 86.5C1919.68 88.4167 1919.04 90.0208 1917.74 91.3125C1916.45 92.6042 1914.85 93.25 1912.93 93.25C1912.02 93.25 1911.14 93.0625 1910.31 92.6875C1909.52 92.3542 1908.81 91.8958 1908.18 91.3125C1907.6 90.6875 1907.12 89.9792 1906.74 89.1875C1906.41 88.3542 1906.24 87.4583 1906.24 86.5Z" fill="black"/>
</svg>
