<svg viewBox="0 0 553 300" fill="none" xmlns="http://www.w3.org/2000/svg">
<path d="M0 90.375C0.25 89.5 0.479167 88.4167 0.6875 87.125C0.9375 85.8333 1.14583 84.2292 1.3125 82.3125C1.47917 80.3958 1.60417 78.125 1.6875 75.5C1.77083 72.8333 1.8125 69.7292 1.8125 66.1875V25.5C1.8125 21.9583 1.77083 18.875 1.6875 16.25C1.60417 13.5833 1.47917 11.2917 1.3125 9.375C1.14583 7.41667 0.9375 5.79167 0.6875 4.5C0.479167 3.20833 0.25 2.125 0 1.25V1H15V1.25C14.75 2.125 14.5 3.20833 14.25 4.5C14.0417 5.79167 13.8542 7.41667 13.6875 9.375C13.5625 11.2917 13.4375 13.5833 13.3125 16.25C13.2292 18.875 13.1875 21.9583 13.1875 25.5V39.4375L49.6875 9.625C53.7708 6.29167 55.8125 3.41667 55.8125 1H73.375V1.25C70.9167 1.83333 68.4167 2.95833 65.875 4.625C63.375 6.25 60.7083 8.25 57.875 10.625L25.625 37.625L64.4375 80.25C66.0625 81.9167 67.4375 83.3125 68.5625 84.4375C69.7292 85.5208 70.75 86.4375 71.625 87.1875C72.5 87.8958 73.2917 88.5 74 89C74.75 89.4583 75.5208 89.9167 76.3125 90.375V90.625H58C57.8333 90.25 57.5417 89.7708 57.125 89.1875C56.75 88.6042 56.2917 88 55.75 87.375C55.25 86.75 54.6875 86.1042 54.0625 85.4375C53.4792 84.7708 52.9167 84.1458 52.375 83.5625L13.1875 40.5625V66.1875C13.1875 69.7292 13.2292 72.8333 13.3125 75.5C13.4375 78.125 13.5625 80.3958 13.6875 82.3125C13.8542 84.2292 14.0417 85.8333 14.25 87.125C14.5 88.4167 14.75 89.5 15 90.375V90.625H0V90.375ZM93.63 1C98.8383 1 104.005 0.979167 109.13 0.9375C114.297 0.895833 119.026 0.854167 123.317 0.8125C127.609 0.729167 131.276 0.625 134.317 0.5C137.359 0.375 139.422 0.208333 140.505 0L137.442 8.3125C136.067 7.9375 134.463 7.60417 132.63 7.3125C131.047 7.0625 129.109 6.83333 126.817 6.625C124.567 6.375 121.963 6.25 119.005 6.25C118.005 6.25 116.797 6.29167 115.38 6.375C114.005 6.41667 112.672 6.47917 111.38 6.5625C109.88 6.64583 108.359 6.72917 106.817 6.8125V40.9375C111.109 40.8958 114.984 40.7708 118.442 40.5625C121.901 40.3542 124.838 40.1458 127.255 39.9375C130.088 39.6875 132.588 39.3958 134.755 39.0625L132.817 48.125C129.942 47.75 127.005 47.3958 124.005 47.0625C121.422 46.7708 118.609 46.5208 115.567 46.3125C112.526 46.0625 109.609 45.9375 106.817 45.9375V85.125C111.734 85.125 116.255 84.9167 120.38 84.5C124.505 84.0833 128.109 83.6042 131.192 83.0625C134.776 82.4792 138.047 81.7917 141.005 81L139.192 91.125C138.692 91.0833 137.942 91.0417 136.942 91C135.942 90.9583 134.817 90.9167 133.567 90.875C132.359 90.8333 131.067 90.7917 129.692 90.75C128.359 90.75 127.088 90.7292 125.88 90.6875C124.672 90.6875 123.588 90.6667 122.63 90.625C121.713 90.625 121.047 90.625 120.63 90.625H93.63V90.375C93.88 89.5 94.1092 88.4167 94.3175 87.125C94.5675 85.8333 94.7758 84.2292 94.9425 82.3125C95.1092 80.3958 95.2342 78.125 95.3175 75.5C95.4008 72.8333 95.4425 69.7292 95.4425 66.1875V25.5C95.4425 21.9583 95.4008 18.875 95.3175 16.25C95.2342 13.5833 95.1092 11.2917 94.9425 9.375C94.7758 7.41667 94.5675 5.79167 94.3175 4.5C94.1092 3.20833 93.88 2.125 93.63 1.25V1ZM167.26 1C172.468 1 177.635 0.979167 182.76 0.9375C187.927 0.895833 192.656 0.854167 196.947 0.8125C201.239 0.729167 204.906 0.625 207.947 0.5C210.989 0.375 213.052 0.208333 214.135 0L211.072 8.3125C209.697 7.9375 208.093 7.60417 206.26 7.3125C204.677 7.0625 202.739 6.83333 200.447 6.625C198.197 6.375 195.593 6.25 192.635 6.25C191.635 6.25 190.427 6.29167 189.01 6.375C187.635 6.41667 186.302 6.47917 185.01 6.5625C183.51 6.64583 181.989 6.72917 180.447 6.8125V40.9375C184.739 40.8958 188.614 40.7708 192.072 40.5625C195.531 40.3542 198.468 40.1458 200.885 39.9375C203.718 39.6875 206.218 39.3958 208.385 39.0625L206.447 48.125C203.572 47.75 200.635 47.3958 197.635 47.0625C195.052 46.7708 192.239 46.5208 189.197 46.3125C186.156 46.0625 183.239 45.9375 180.447 45.9375V85.125C185.364 85.125 189.885 84.9167 194.01 84.5C198.135 84.0833 201.739 83.6042 204.822 83.0625C208.406 82.4792 211.677 81.7917 214.635 81L212.822 91.125C212.322 91.0833 211.572 91.0417 210.572 91C209.572 90.9583 208.447 90.9167 207.197 90.875C205.989 90.8333 204.697 90.7917 203.322 90.75C201.989 90.75 200.718 90.7292 199.51 90.6875C198.302 90.6875 197.218 90.6667 196.26 90.625C195.343 90.625 194.677 90.625 194.26 90.625H167.26V90.375C167.51 89.5 167.739 88.4167 167.947 87.125C168.197 85.8333 168.406 84.2292 168.572 82.3125C168.739 80.3958 168.864 78.125 168.947 75.5C169.031 72.8333 169.072 69.7292 169.072 66.1875V25.5C169.072 21.9583 169.031 18.875 168.947 16.25C168.864 13.5833 168.739 11.2917 168.572 9.375C168.406 7.41667 168.197 5.79167 167.947 4.5C167.739 3.20833 167.51 2.125 167.26 1.25V1ZM244.39 1L308.765 69.5V25.5C308.765 21.9583 308.723 18.875 308.64 16.25C308.557 13.5833 308.432 11.2917 308.265 9.375C308.098 7.41667 307.89 5.79167 307.64 4.5C307.432 3.20833 307.202 2.125 306.952 1.25V1H318.077V1.25C317.827 2.125 317.598 3.20833 317.39 4.5C317.182 5.79167 316.994 7.41667 316.827 9.375C316.661 11.2917 316.536 13.5833 316.452 16.25C316.369 18.875 316.327 21.9583 316.327 25.5V91.875H314.14L249.765 23.4375V66.1875C249.765 69.7292 249.807 72.8333 249.89 75.5C249.973 78.125 250.098 80.3958 250.265 82.3125C250.432 84.2292 250.619 85.8333 250.827 87.125C251.036 88.4167 251.265 89.5 251.515 90.375V90.625H240.39V90.375C240.64 89.5 240.869 88.4167 241.077 87.125C241.327 85.8333 241.536 84.2292 241.702 82.3125C241.869 80.3958 241.994 78.125 242.077 75.5C242.161 72.8333 242.202 69.7292 242.202 66.1875V25.5C242.202 21.9583 242.161 18.875 242.077 16.25C241.994 13.5833 241.869 11.2917 241.702 9.375C241.536 7.41667 241.327 5.79167 241.077 4.5C240.869 3.20833 240.64 2.125 240.39 1.25V1H244.39ZM346.395 1C351.603 1 356.77 0.979167 361.895 0.9375C367.062 0.895833 371.791 0.854167 376.082 0.8125C380.374 0.729167 384.041 0.625 387.082 0.5C390.124 0.375 392.187 0.208333 393.27 0L390.207 8.3125C388.832 7.9375 387.228 7.60417 385.395 7.3125C383.812 7.0625 381.874 6.83333 379.582 6.625C377.332 6.375 374.728 6.25 371.77 6.25C370.77 6.25 369.562 6.29167 368.145 6.375C366.77 6.41667 365.437 6.47917 364.145 6.5625C362.645 6.64583 361.124 6.72917 359.582 6.8125V40.9375C363.874 40.8958 367.749 40.7708 371.207 40.5625C374.666 40.3542 377.603 40.1458 380.02 39.9375C382.853 39.6875 385.353 39.3958 387.52 39.0625L385.582 48.125C382.707 47.75 379.77 47.3958 376.77 47.0625C374.187 46.7708 371.374 46.5208 368.332 46.3125C365.291 46.0625 362.374 45.9375 359.582 45.9375V85.125C364.499 85.125 369.02 84.9167 373.145 84.5C377.27 84.0833 380.874 83.6042 383.957 83.0625C387.541 82.4792 390.812 81.7917 393.77 81L391.957 91.125C391.457 91.0833 390.707 91.0417 389.707 91C388.707 90.9583 387.582 90.9167 386.332 90.875C385.124 90.8333 383.832 90.7917 382.457 90.75C381.124 90.75 379.853 90.7292 378.645 90.6875C377.437 90.6875 376.353 90.6667 375.395 90.625C374.478 90.625 373.812 90.625 373.395 90.625H346.395V90.375C346.645 89.5 346.874 88.4167 347.082 87.125C347.332 85.8333 347.541 84.2292 347.707 82.3125C347.874 80.3958 347.999 78.125 348.082 75.5C348.166 72.8333 348.207 69.7292 348.207 66.1875V25.5C348.207 21.9583 348.166 18.875 348.082 16.25C347.999 13.5833 347.874 11.2917 347.707 9.375C347.541 7.41667 347.332 5.79167 347.082 4.5C346.874 3.20833 346.645 2.125 346.395 1.25V1ZM13.1875 170.188C13.1875 173.729 13.2292 176.833 13.3125 179.5C13.4375 182.125 13.5625 184.396 13.6875 186.312C13.8542 188.229 14.0417 189.833 14.25 191.125C14.5 192.417 14.75 193.5 15 194.375V194.625H0V194.375C0.25 193.5 0.479167 192.417 0.6875 191.125C0.9375 189.833 1.14583 188.229 1.3125 186.312C1.47917 184.396 1.60417 182.125 1.6875 179.5C1.77083 176.833 1.8125 173.729 1.8125 170.188V129.5C1.8125 125.958 1.77083 122.875 1.6875 120.25C1.60417 117.583 1.47917 115.292 1.3125 113.375C1.14583 111.417 0.9375 109.792 0.6875 108.5C0.479167 107.208 0.25 106.125 0 105.25V105C3.45833 105 6.95833 105 10.5 105C14.0417 104.958 17.4792 104.938 20.8125 104.938C24.1458 104.896 27.3125 104.854 30.3125 104.812C33.3125 104.729 36.0208 104.667 38.4375 104.625C40.8542 104.542 42.8958 104.458 44.5625 104.375C46.2292 104.25 47.4167 104.125 48.125 104L45.0625 112.312C43.6875 111.938 42.0833 111.604 40.25 111.312C38.6667 111.062 36.7292 110.833 34.4375 110.625C32.1875 110.375 29.5833 110.25 26.625 110.25C25.625 110.25 24.375 110.292 22.875 110.375C21.375 110.417 19.8958 110.479 18.4375 110.562C16.7708 110.646 15.0208 110.729 13.1875 110.812V142.375C17.4792 142.333 21.4167 142.208 25 142C28.5833 141.792 31.6667 141.583 34.25 141.375C37.25 141.125 39.9583 140.833 42.375 140.5L40.5 149.562C37.375 149.188 34.2083 148.833 31 148.5C28.25 148.208 25.2917 147.958 22.125 147.75C18.9583 147.5 15.9792 147.375 13.1875 147.375V170.188ZM123.505 194.625V194.375C123.588 194.167 123.651 193.854 123.693 193.438C123.734 193.021 123.755 192.646 123.755 192.312C123.755 191.021 123.568 189.604 123.193 188.062C122.859 186.479 122.193 184.521 121.193 182.188L113.63 165.188C111.297 165.104 108.193 165.062 104.318 165.062C100.443 165.062 96.255 165.062 91.755 165.062C88.4633 165.062 85.2758 165.062 82.1925 165.062C79.1508 165.062 76.4008 165.104 73.9425 165.188L66.755 181.688C66.13 183.229 65.4633 184.917 64.755 186.75C64.0467 188.583 63.6925 190.438 63.6925 192.312C63.6925 192.854 63.7342 193.312 63.8175 193.688C63.9008 194.021 63.9842 194.25 64.0675 194.375V194.625H51.3175V194.375C52.0675 193.583 53.005 192.188 54.13 190.188C55.255 188.146 56.4842 185.604 57.8175 182.562L93.63 103.125H98.63L132.568 179.5C133.359 181.292 134.172 183.042 135.005 184.75C135.88 186.417 136.693 187.917 137.443 189.25C138.193 190.583 138.859 191.708 139.443 192.625C140.026 193.542 140.422 194.125 140.63 194.375V194.625H123.505ZM83.005 159.688C85.4217 159.688 87.9008 159.688 90.4425 159.688C92.9842 159.646 95.4633 159.625 97.88 159.625C100.338 159.583 102.693 159.562 104.943 159.562C107.193 159.521 109.234 159.479 111.068 159.438L93.505 119.75L76.255 159.688H83.005ZM162.76 105L227.135 173.5V129.5C227.135 125.958 227.093 122.875 227.01 120.25C226.927 117.583 226.802 115.292 226.635 113.375C226.468 111.417 226.26 109.792 226.01 108.5C225.802 107.208 225.572 106.125 225.322 105.25V105H236.447V105.25C236.197 106.125 235.968 107.208 235.76 108.5C235.552 109.792 235.364 111.417 235.197 113.375C235.031 115.292 234.906 117.583 234.822 120.25C234.739 122.875 234.697 125.958 234.697 129.5V195.875H232.51L168.135 127.438V170.188C168.135 173.729 168.177 176.833 168.26 179.5C168.343 182.125 168.468 184.396 168.635 186.312C168.802 188.229 168.989 189.833 169.197 191.125C169.406 192.417 169.635 193.5 169.885 194.375V194.625H158.76V194.375C159.01 193.5 159.239 192.417 159.447 191.125C159.697 189.833 159.906 188.229 160.072 186.312C160.239 184.396 160.364 182.125 160.447 179.5C160.531 176.833 160.572 173.729 160.572 170.188V129.5C160.572 125.958 160.531 122.875 160.447 120.25C160.364 117.583 160.239 115.292 160.072 113.375C159.906 111.417 159.697 109.792 159.447 108.5C159.239 107.208 159.01 106.125 158.76 105.25V105H162.76ZM268.265 105L332.64 173.5V129.5C332.64 125.958 332.598 122.875 332.515 120.25C332.432 117.583 332.307 115.292 332.14 113.375C331.973 111.417 331.765 109.792 331.515 108.5C331.307 107.208 331.078 106.125 330.828 105.25V105H341.953V105.25C341.703 106.125 341.473 107.208 341.265 108.5C341.057 109.792 340.869 111.417 340.703 113.375C340.536 115.292 340.411 117.583 340.328 120.25C340.244 122.875 340.203 125.958 340.203 129.5V195.875H338.015L273.64 127.438V170.188C273.64 173.729 273.682 176.833 273.765 179.5C273.848 182.125 273.973 184.396 274.14 186.312C274.307 188.229 274.494 189.833 274.703 191.125C274.911 192.417 275.14 193.5 275.39 194.375V194.625H264.265V194.375C264.515 193.5 264.744 192.417 264.953 191.125C265.203 189.833 265.411 188.229 265.578 186.312C265.744 184.396 265.869 182.125 265.953 179.5C266.036 176.833 266.078 173.729 266.078 170.188V129.5C266.078 125.958 266.036 122.875 265.953 120.25C265.869 117.583 265.744 115.292 265.578 113.375C265.411 111.417 265.203 109.792 264.953 108.5C264.744 107.208 264.515 106.125 264.265 105.25V105H268.265ZM411.145 103.5C418.103 103.5 424.52 104.646 430.395 106.938C436.312 109.188 441.416 112.375 445.707 116.5C449.999 120.583 453.353 125.5 455.77 131.25C458.187 137 459.395 143.354 459.395 150.312C459.395 154.271 458.937 158.167 458.02 162C457.103 165.833 455.749 169.458 453.957 172.875C452.207 176.292 450.041 179.458 447.457 182.375C444.874 185.25 441.916 187.75 438.582 189.875C435.291 191.958 431.645 193.583 427.645 194.75C423.645 195.958 419.332 196.562 414.707 196.562C407.749 196.562 401.312 195.458 395.395 193.25C389.52 191 384.437 187.833 380.145 183.75C375.853 179.667 372.499 174.771 370.082 169.062C367.666 163.312 366.457 156.938 366.457 149.938C366.457 145.979 366.916 142.083 367.832 138.25C368.749 134.417 370.082 130.771 371.832 127.312C373.624 123.854 375.791 120.688 378.332 117.812C380.916 114.896 383.853 112.375 387.145 110.25C390.478 108.125 394.145 106.479 398.145 105.312C402.187 104.104 406.52 103.5 411.145 103.5ZM414.707 190.938C419.332 190.938 423.562 190.104 427.395 188.438C431.228 186.771 434.52 184.354 437.27 181.188C440.062 178.021 442.228 174.167 443.77 169.625C445.312 165.042 446.082 159.854 446.082 154.062C446.082 147.646 445.332 141.708 443.832 136.25C442.374 130.75 440.187 126 437.27 122C434.353 117.958 430.707 114.812 426.332 112.562C421.999 110.271 416.937 109.125 411.145 109.125C406.52 109.125 402.291 109.958 398.457 111.625C394.624 113.25 391.312 115.625 388.52 118.75C385.77 121.875 383.624 125.708 382.082 130.25C380.541 134.792 379.77 139.958 379.77 145.75C379.77 152.125 380.499 158.083 381.957 163.625C383.416 169.125 385.603 173.896 388.52 177.938C391.437 181.979 395.082 185.167 399.457 187.5C403.832 189.792 408.916 190.938 414.707 190.938ZM497.587 170.188C497.587 173.729 497.629 176.833 497.712 179.5C497.837 182.125 497.962 184.396 498.087 186.312C498.254 188.229 498.442 189.833 498.65 191.125C498.9 192.417 499.15 193.5 499.4 194.375V194.625H484.4V194.375C484.65 193.5 484.879 192.417 485.087 191.125C485.337 189.833 485.525 188.229 485.65 186.312C485.817 184.396 485.942 182.125 486.025 179.5C486.15 176.875 486.212 173.771 486.212 170.188V129.5C486.212 125.958 486.15 122.875 486.025 120.25C485.942 117.583 485.817 115.292 485.65 113.375C485.525 111.458 485.337 109.854 485.087 108.562C484.879 107.229 484.65 106.125 484.4 105.25V105L487.025 105.25C487.817 105.333 488.692 105.396 489.65 105.438C490.65 105.438 491.671 105.438 492.712 105.438C494.337 105.438 496.525 105.25 499.275 104.875C502.067 104.458 505.608 104.25 509.9 104.25C513.9 104.25 517.587 104.792 520.962 105.875C524.379 106.958 527.337 108.542 529.837 110.625C532.337 112.708 534.275 115.271 535.65 118.312C537.067 121.312 537.775 124.729 537.775 128.562C537.775 131.562 537.379 134.354 536.587 136.938C535.837 139.479 534.754 141.792 533.337 143.875C531.962 145.958 530.296 147.812 528.337 149.438C526.379 151.021 524.192 152.354 521.775 153.438L543.712 184.25C544.796 185.792 545.796 187.125 546.712 188.25C547.671 189.375 548.567 190.354 549.4 191.188C550.275 191.979 551.108 192.646 551.9 193.188C552.692 193.688 553.504 194.083 554.337 194.375V194.625H536.275C536.15 193.833 535.733 192.792 535.025 191.5C534.358 190.167 533.567 188.854 532.65 187.562L510.525 156.375C509.567 156.458 508.608 156.542 507.65 156.625C506.692 156.667 505.712 156.688 504.712 156.688C503.546 156.688 502.358 156.646 501.15 156.562C499.983 156.479 498.796 156.333 497.587 156.125V170.188ZM497.587 151.25C498.712 151.5 499.858 151.688 501.025 151.812C502.192 151.896 503.317 151.938 504.4 151.938C507.525 151.938 510.379 151.479 512.962 150.562C515.546 149.604 517.733 148.167 519.525 146.25C521.358 144.333 522.775 141.958 523.775 139.125C524.775 136.25 525.275 132.896 525.275 129.062C525.275 125.938 524.921 123.104 524.212 120.562C523.504 118.021 522.442 115.875 521.025 114.125C519.65 112.333 517.9 110.958 515.775 110C513.65 109 511.171 108.5 508.337 108.5C505.462 108.5 503.171 108.646 501.462 108.938C499.754 109.229 498.462 109.542 497.587 109.875V151.25ZM13.1875 274.188C13.1875 277.729 13.2292 280.833 13.3125 283.5C13.4375 286.125 13.5625 288.396 13.6875 290.312C13.8542 292.229 14.0417 293.833 14.25 295.125C14.5 296.417 14.75 297.5 15 298.375V298.625H0V298.375C0.25 297.5 0.479167 296.417 0.6875 295.125C0.9375 293.833 1.125 292.229 1.25 290.312C1.41667 288.396 1.54167 286.125 1.625 283.5C1.75 280.875 1.8125 277.771 1.8125 274.188V233.5C1.8125 229.958 1.75 226.875 1.625 224.25C1.54167 221.583 1.41667 219.292 1.25 217.375C1.125 215.458 0.9375 213.854 0.6875 212.562C0.479167 211.229 0.25 210.125 0 209.25V209L2.625 209.25C3.41667 209.333 4.29167 209.396 5.25 209.438C6.25 209.438 7.27083 209.438 8.3125 209.438C9.9375 209.438 12.125 209.25 14.875 208.875C17.6667 208.458 21.2083 208.25 25.5 208.25C29.5 208.25 33.1875 208.792 36.5625 209.875C39.9792 210.958 42.9375 212.542 45.4375 214.625C47.9375 216.708 49.875 219.271 51.25 222.312C52.6667 225.312 53.375 228.729 53.375 232.562C53.375 235.562 52.9792 238.354 52.1875 240.938C51.4375 243.479 50.3542 245.792 48.9375 247.875C47.5625 249.958 45.8958 251.812 43.9375 253.438C41.9792 255.021 39.7917 256.354 37.375 257.438L59.3125 288.25C60.3958 289.792 61.3958 291.125 62.3125 292.25C63.2708 293.375 64.1667 294.354 65 295.188C65.875 295.979 66.7083 296.646 67.5 297.188C68.2917 297.688 69.1042 298.083 69.9375 298.375V298.625H51.875C51.75 297.833 51.3333 296.792 50.625 295.5C49.9583 294.167 49.1667 292.854 48.25 291.562L26.125 260.375C25.1667 260.458 24.2083 260.542 23.25 260.625C22.2917 260.667 21.3125 260.688 20.3125 260.688C19.1458 260.688 17.9583 260.646 16.75 260.562C15.5833 260.479 14.3958 260.333 13.1875 260.125V274.188ZM13.1875 255.25C14.3125 255.5 15.4583 255.688 16.625 255.812C17.7917 255.896 18.9167 255.938 20 255.938C23.125 255.938 25.9792 255.479 28.5625 254.562C31.1458 253.604 33.3333 252.167 35.125 250.25C36.9583 248.333 38.375 245.958 39.375 243.125C40.375 240.25 40.875 236.896 40.875 233.062C40.875 229.938 40.5208 227.104 39.8125 224.562C39.1042 222.021 38.0417 219.875 36.625 218.125C35.25 216.333 33.5 214.958 31.375 214C29.25 213 26.7708 212.5 23.9375 212.5C21.0625 212.5 18.7708 212.646 17.0625 212.938C15.3542 213.229 14.0625 213.542 13.1875 213.875V255.25ZM86.505 209C91.7133 209 96.88 208.979 102.005 208.938C107.172 208.896 111.901 208.854 116.192 208.812C120.484 208.729 124.151 208.625 127.192 208.5C130.234 208.375 132.297 208.208 133.38 208L130.317 216.312C128.942 215.938 127.338 215.604 125.505 215.312C123.922 215.062 121.984 214.833 119.692 214.625C117.442 214.375 114.838 214.25 111.88 214.25C110.88 214.25 109.672 214.292 108.255 214.375C106.88 214.417 105.547 214.479 104.255 214.562C102.755 214.646 101.234 214.729 99.6925 214.812V248.938C103.984 248.896 107.859 248.771 111.317 248.562C114.776 248.354 117.713 248.146 120.13 247.938C122.963 247.688 125.463 247.396 127.63 247.062L125.692 256.125C122.817 255.75 119.88 255.396 116.88 255.062C114.297 254.771 111.484 254.521 108.442 254.312C105.401 254.062 102.484 253.938 99.6925 253.938V293.125C104.609 293.125 109.13 292.917 113.255 292.5C117.38 292.083 120.984 291.604 124.067 291.062C127.651 290.479 130.922 289.792 133.88 289L132.067 299.125C131.567 299.083 130.817 299.042 129.817 299C128.817 298.958 127.692 298.917 126.442 298.875C125.234 298.833 123.942 298.792 122.567 298.75C121.234 298.75 119.963 298.729 118.755 298.688C117.547 298.688 116.463 298.667 115.505 298.625C114.588 298.625 113.922 298.625 113.505 298.625H86.505V298.375C86.755 297.5 86.9842 296.417 87.1925 295.125C87.4425 293.833 87.6508 292.229 87.8175 290.312C87.9842 288.396 88.1092 286.125 88.1925 283.5C88.2758 280.833 88.3175 277.729 88.3175 274.188V233.5C88.3175 229.958 88.2758 226.875 88.1925 224.25C88.1092 221.583 87.9842 219.292 87.8175 217.375C87.6508 215.417 87.4425 213.792 87.1925 212.5C86.9842 211.208 86.755 210.125 86.505 209.25V209ZM222.135 298.625V298.375C222.218 298.167 222.281 297.854 222.322 297.438C222.364 297.021 222.385 296.646 222.385 296.312C222.385 295.021 222.197 293.604 221.822 292.062C221.489 290.479 220.822 288.521 219.822 286.188L212.26 269.188C209.927 269.104 206.822 269.062 202.947 269.062C199.072 269.062 194.885 269.062 190.385 269.062C187.093 269.062 183.906 269.062 180.822 269.062C177.781 269.062 175.031 269.104 172.572 269.188L165.385 285.688C164.76 287.229 164.093 288.917 163.385 290.75C162.677 292.583 162.322 294.438 162.322 296.312C162.322 296.854 162.364 297.312 162.447 297.688C162.531 298.021 162.614 298.25 162.697 298.375V298.625H149.947V298.375C150.697 297.583 151.635 296.188 152.76 294.188C153.885 292.146 155.114 289.604 156.447 286.562L192.26 207.125H197.26L231.197 283.5C231.989 285.292 232.802 287.042 233.635 288.75C234.51 290.417 235.322 291.917 236.072 293.25C236.822 294.583 237.489 295.708 238.072 296.625C238.656 297.542 239.052 298.125 239.26 298.375V298.625H222.135ZM181.635 263.688C184.052 263.688 186.531 263.688 189.072 263.688C191.614 263.646 194.093 263.625 196.51 263.625C198.968 263.583 201.322 263.562 203.572 263.562C205.822 263.521 207.864 263.479 209.697 263.438L192.135 223.75L174.885 263.688H181.635ZM271.078 293.125C275.994 293.125 280.515 292.917 284.64 292.5C288.765 292.083 292.369 291.604 295.453 291.062C299.036 290.479 302.307 289.792 305.265 289L303.453 299.125C302.953 299.083 302.203 299.042 301.203 299C300.203 298.958 299.078 298.917 297.828 298.875C296.619 298.833 295.328 298.792 293.953 298.75C292.619 298.75 291.348 298.729 290.14 298.688C288.932 298.688 287.848 298.667 286.89 298.625C285.973 298.625 285.307 298.625 284.89 298.625H257.89V298.375C258.14 297.5 258.369 296.417 258.578 295.125C258.828 293.833 259.036 292.229 259.203 290.312C259.369 288.396 259.494 286.125 259.578 283.5C259.661 280.833 259.703 277.729 259.703 274.188V233.5C259.703 229.958 259.661 226.875 259.578 224.25C259.494 221.583 259.369 219.292 259.203 217.375C259.036 215.417 258.828 213.792 258.578 212.5C258.369 211.208 258.14 210.125 257.89 209.25V209H272.89V209.25C272.64 210.125 272.39 211.208 272.14 212.5C271.932 213.792 271.744 215.417 271.578 217.375C271.453 219.292 271.328 221.583 271.203 224.25C271.119 226.875 271.078 229.958 271.078 233.5V293.125ZM340.207 214.5C335.291 214.5 330.853 214.729 326.895 215.188C322.937 215.604 319.52 216.062 316.645 216.562C313.312 217.188 310.332 217.875 307.707 218.625L309.52 208.5C310.02 208.542 310.77 208.583 311.77 208.625C312.77 208.667 313.874 208.708 315.082 208.75C316.332 208.792 317.624 208.833 318.957 208.875C320.332 208.875 321.624 208.896 322.832 208.938C324.041 208.938 325.103 208.958 326.02 209C326.978 209 327.666 209 328.082 209H363.77C364.187 209 364.853 209 365.77 209C366.728 208.958 367.812 208.938 369.02 208.938C370.228 208.896 371.499 208.875 372.832 208.875C374.207 208.833 375.499 208.792 376.707 208.75C377.957 208.708 379.082 208.667 380.082 208.625C381.082 208.583 381.832 208.542 382.332 208.5L384.145 218.625C381.478 217.875 378.478 217.188 375.145 216.562C372.27 216.062 368.853 215.604 364.895 215.188C360.937 214.729 356.499 214.5 351.582 214.5V274.188C351.582 277.729 351.624 280.833 351.707 283.5C351.832 286.125 351.957 288.396 352.082 290.312C352.249 292.229 352.437 293.833 352.645 295.125C352.895 296.417 353.145 297.5 353.395 298.375V298.625H338.457V298.375C338.707 297.5 338.937 296.417 339.145 295.125C339.353 293.833 339.541 292.229 339.707 290.312C339.874 288.396 339.999 286.125 340.082 283.5C340.166 280.833 340.207 277.729 340.207 274.188V214.5ZM440.525 255.625V274.188C440.525 277.729 440.567 280.833 440.65 283.5C440.733 286.125 440.858 288.396 441.025 290.312C441.192 292.229 441.379 293.833 441.587 295.125C441.837 296.417 442.087 297.5 442.337 298.375V298.625H427.337V298.375C427.587 297.5 427.817 296.417 428.025 295.125C428.275 293.833 428.462 292.229 428.587 290.312C428.754 288.396 428.879 286.125 428.962 283.5C429.087 280.833 429.15 277.729 429.15 274.188V256.875L401.212 218.875C400.254 217.583 399.296 216.396 398.337 215.312C397.421 214.229 396.546 213.292 395.712 212.5C394.879 211.667 394.129 210.979 393.462 210.438C392.796 209.896 392.275 209.5 391.9 209.25V209H410.837C410.837 209.958 411.233 211.542 412.025 213.75C412.858 215.917 414.337 218.479 416.462 221.438L436.962 249.5L457.025 220.188C457.733 219.146 458.442 218.083 459.15 217C459.858 215.917 460.504 214.875 461.087 213.875C461.671 212.875 462.129 211.958 462.462 211.125C462.837 210.292 463.025 209.583 463.025 209H475.212V209.25C474.296 210.042 473.067 211.229 471.525 212.812C469.983 214.354 468.317 216.417 466.525 219L440.525 255.625Z" fill="black"/>
</svg>
