<svg width="1021" height="205" viewBox="0 0 1021 205" fill="none" xmlns="http://www.w3.org/2000/svg">
<path d="M307.6 45.84H311.824L299.792 74.384L273.04 138H268.944L245.904 84.88L223.632 138H219.408L188.432 66.832L187.408 65.04C186.896 63.888 186.384 62.352 185.616 60.56C185.104 59.152 184.464 57.616 183.824 56.592L179.344 45.84H192.784L200.72 63.376L226.576 123.408C242.192 86.16 248.208 70.928 248.208 70.928H253.584L276.112 123.28L296.848 73.872C298.128 70.8 299.152 67.984 299.92 65.808L307.6 45.84ZM333.996 134.8H346.028H374.316V138H320.812V114.32V107.92V102.416V68.624V45.84H374.572V48.912H346.284H333.996V68.752V71.44V87.952H343.34H360.62V91.152H343.724H333.996V102.416V104.464V107.92V114.32V134.8ZM393.547 134.928H407.627C415.563 134.928 422.091 133.776 427.211 131.6C432.331 129.424 436.683 125.2 440.011 118.8C443.467 112.4 445.259 104.208 445.259 94.352C445.259 86.544 444.235 79.76 442.187 73.616C440.267 67.6 437.323 62.736 433.611 58.896C429.899 55.056 425.803 52.496 421.323 51.088C416.715 49.808 410.955 49.04 403.915 49.04C400.459 49.04 396.619 49.168 393.547 49.424V134.928ZM380.363 138V45.84C401.355 45.84 405.707 45.84 405.707 45.84C419.147 45.84 429.771 47.888 437.323 52.112C444.875 56.208 450.507 61.712 454.219 68.88C457.931 75.92 459.851 83.984 459.851 93.328C459.851 99.984 458.827 106.128 456.779 111.632C454.731 117.136 452.043 121.744 448.459 125.328C445.003 129.04 440.907 131.856 436.171 133.776C431.563 135.696 427.211 136.848 422.987 137.232C418.891 137.744 413.003 138 405.451 138H380.363ZM483.967 134.928H498.047C505.983 134.928 512.511 133.776 517.631 131.6C522.751 129.424 527.103 125.2 530.431 118.8C533.887 112.4 535.679 104.208 535.679 94.352C535.679 86.544 534.655 79.76 532.607 73.616C530.687 67.6 527.743 62.736 524.031 58.896C520.319 55.056 516.223 52.496 511.743 51.088C507.135 49.808 501.375 49.04 494.335 49.04C490.879 49.04 487.039 49.168 483.967 49.424V134.928ZM470.783 138V45.84C491.775 45.84 496.127 45.84 496.127 45.84C509.567 45.84 520.191 47.888 527.743 52.112C535.295 56.208 540.927 61.712 544.639 68.88C548.351 75.92 550.271 83.984 550.271 93.328C550.271 99.984 549.247 106.128 547.199 111.632C545.151 117.136 542.463 121.744 538.879 125.328C535.423 129.04 531.327 131.856 526.591 133.776C521.983 135.696 517.631 136.848 513.407 137.232C509.311 137.744 503.423 138 495.871 138H470.783ZM574.131 134.8H586.163H614.451V138H560.947V114.32V107.92V102.416V68.624V45.84H614.707V48.912H586.419H574.131V68.752V71.44V87.952H583.475H600.755V91.152H583.859H574.131V102.416V104.464V107.92V114.32V134.8ZM619.986 45.84H640.082C648.786 45.84 655.826 46.352 661.202 48.016C666.578 49.552 671.058 51.856 674.386 55.44C677.714 59.152 679.378 63.504 679.378 68.624C679.378 74.512 677.202 79.76 672.85 83.856C668.37 88.08 661.97 91.408 653.522 92.56C657.234 94.352 663.378 96.784 671.826 108.176C671.826 108.176 678.61 117.392 687.058 138H676.562C675.538 133.776 661.97 94.224 637.01 94.224H633.042V113.552V138H619.986V113.552V69.008V45.84ZM633.042 91.152H643.794C647.378 91.152 650.45 89.872 653.01 89.104C655.698 88.336 657.874 86.544 659.41 85.008C661.074 83.472 662.354 81.424 663.25 78.992C664.274 76.432 664.658 73.488 664.658 69.904C664.658 63.504 663.122 58.64 659.922 54.8C656.722 50.96 649.426 49.68 638.802 49.68H633.042V91.152ZM711.355 91.024V134.16C718.907 134.16 723.003 134.16 723.003 134.16C730.171 134.16 735.547 133.136 739.131 129.552C742.715 125.84 744.507 120.336 744.507 112.912C744.507 105.36 742.459 99.856 738.491 96.272C734.395 92.688 727.355 90.896 717.115 90.896C715.451 90.896 712.891 91.024 711.355 91.024ZM711.355 49.296V87.824C712.123 87.824 714.043 87.824 714.811 87.824C724.539 87.824 731.067 86.288 734.651 83.216C738.235 80.144 739.899 75.28 739.899 68.368C739.899 63.632 739.259 59.92 737.851 57.36C736.443 54.672 734.267 52.752 731.579 51.344C728.763 49.808 724.155 49.168 717.371 49.168C715.579 49.168 712.891 49.168 711.355 49.296ZM698.171 138V45.84H716.731C741.691 45.84 754.235 53.008 754.235 67.472C754.235 73.36 752.059 78.224 747.707 81.808C743.483 85.392 736.955 87.824 728.379 89.104C738.747 89.872 746.427 92.432 751.547 96.784C756.539 101.264 759.099 106.768 759.099 113.296C759.099 119.056 757.307 124.048 753.979 128.272C750.523 132.368 746.171 134.928 740.795 136.208C735.419 137.488 728.379 138 719.419 138H698.171ZM840.869 45.84H844.069V67.472V97.808C844.069 105.488 843.301 111.248 842.661 115.088C842.021 118.8 839.845 122.512 836.901 126.096C834.085 129.68 829.989 132.624 824.741 134.8C819.493 136.976 813.477 138 806.693 138C798.501 138 791.717 136.592 786.085 133.904C780.581 131.088 776.613 127.504 774.309 123.152C771.877 118.8 770.469 112.912 770.981 105.616L771.621 96.272V67.984V45.84H784.677V67.984V96.656C784.677 106.512 784.549 113.552 785.445 117.776C786.469 122 788.517 125.584 792.741 128.656C796.965 131.856 802.725 133.392 809.765 133.392C815.269 133.392 820.389 132.368 824.997 130.192C829.477 128.144 833.061 125.584 835.237 122.512C837.413 119.312 839.077 116.112 839.589 112.784C840.101 109.584 840.869 104.336 840.869 97.296V66.32V45.84ZM855.996 45.84H876.092C884.796 45.84 891.836 46.352 897.212 48.016C902.588 49.552 907.068 51.856 910.396 55.44C913.724 59.152 915.388 63.504 915.388 68.624C915.388 74.512 913.212 79.76 908.86 83.856C904.38 88.08 897.98 91.408 889.532 92.56C893.244 94.352 899.388 96.784 907.836 108.176C907.836 108.176 914.62 117.392 923.068 138H912.572C911.548 133.776 897.98 94.224 873.02 94.224H869.052V113.552V138H855.996V113.552V69.008V45.84ZM869.052 91.152H879.804C883.388 91.152 886.46 89.872 889.02 89.104C891.708 88.336 893.884 86.544 895.42 85.008C897.084 83.472 898.364 81.424 899.26 78.992C900.284 76.432 900.668 73.488 900.668 69.904C900.668 63.504 899.132 58.64 895.932 54.8C892.732 50.96 885.436 49.68 874.812 49.68H869.052V91.152ZM1001.25 45.84H1005.09V62.992V138H1002.66L938.021 53.136V115.6V135.696H935.077V115.6V67.856V45.84H948.901L1001.25 115.856V61.968V45.84Z" fill="#676767"/>
<path d="M713.785 154.88L703.75 179.045L690.565 147.41H692.365L703.66 174.275L713.785 150.47L723.775 174.275L735.16 147.41H736.96L723.775 179.045L713.785 154.88ZM757.61 149.345H741.5V162.845H753.785V164.6H741.5V177.245H757.205V179.045H739.7V147.635H757.61V149.345ZM780.956 170.765C780.956 175.22 777.311 178.91 772.856 178.955H760.481V147.635H770.696C775.286 147.68 779.021 151.46 779.021 156.05C779.021 158.165 778.211 160.145 776.816 161.765L775.646 162.98L777.086 163.835C779.516 165.32 780.956 167.93 780.956 170.765ZM762.281 149.435V162.62H770.606C774.296 162.62 777.221 159.695 777.221 156.05C777.221 152.36 774.296 149.435 770.606 149.435H762.281ZM772.901 177.2C776.501 177.2 779.066 174.365 779.066 170.765C779.066 167.255 776.456 164.465 772.766 164.465H762.281V177.2H772.901ZM821.81 163.16C821.81 171.755 814.835 178.865 806.285 178.955H798.5V147.455H806.285C814.835 147.59 821.81 154.61 821.81 163.16ZM800.39 177.2H806.06C813.575 177.2 819.83 170.675 819.83 163.16C819.83 155.69 813.575 149.345 806.06 149.345H800.345L800.39 177.2ZM842.776 149.345H826.666V162.845H838.951V164.6H826.666V177.245H842.371V179.045H824.866V147.635H842.776V149.345ZM872.375 147.5L858.965 178.955L845.555 147.5H847.535L858.965 174.32L870.485 147.5H872.375ZM893.137 149.345H877.027V162.845H889.312V164.6H877.027V177.245H892.732V179.045H875.227V147.635H893.137V149.345ZM896.053 147.5H898.033V177.245H912.523V179.045H896.053V147.5ZM924.658 147.41C932.983 147.41 939.733 154.475 939.733 163.16C939.733 171.845 932.983 178.955 924.658 178.955C916.333 178.955 909.583 171.845 909.583 163.16C909.583 154.475 916.333 147.41 924.658 147.41ZM924.658 177.065C931.948 177.065 938.068 170.72 938.068 163.16C938.068 155.645 931.948 149.3 924.658 149.3C917.413 149.3 911.248 155.645 911.248 163.16C911.248 170.72 917.413 177.065 924.658 177.065ZM955.228 169.055C954.688 169.145 954.238 169.145 953.788 169.19H946.768V179.045H945.013V147.545H953.788C959.638 147.635 964.363 152.495 964.363 158.345C964.363 162.035 962.563 165.365 959.503 167.39L959.458 167.435C959.458 167.435 957.658 168.695 955.228 169.055ZM946.768 167.255H953.563C958.468 167.255 962.473 163.25 962.473 158.345C962.473 153.44 958.468 149.48 953.563 149.48H946.768V167.255ZM985.247 149.345H969.137V162.845H981.422V164.6H969.137V177.245H984.842V179.045H967.337V147.635H985.247V149.345ZM999.111 167.03C997.896 167.39 996.861 167.39 996.411 167.39L989.841 167.435V179.09H988.131V147.41H996.411C1001.81 147.5 1006.22 152 1006.22 157.4C1006.22 160.775 1004.56 163.925 1001.72 165.77L1000.73 166.4L1006.45 179.09H1004.56L999.111 167.03ZM989.841 165.725H996.231C1000.82 165.725 1004.56 161.99 1004.56 157.4C1004.56 152.81 1000.82 149.075 996.231 149.075H989.841V165.725Z" fill="#989898"/>
<path d="M94.5 146H83.825L19.075 31.9L19.425 145.825H12.075V23.675H23.625L87.15 137.95V23.675H94.5V146ZM188.929 116.95H126.629L114.904 146H106.154L157.954 22.975L210.104 146H201.179L188.929 116.95ZM157.954 42.75L129.429 110.125H186.304L157.954 42.75Z" fill="#CDCCCC"/>
</svg>
